<svg fill="none" height="64" viewBox="0 0 64 64" width="64" xmlns="http://www.w3.org/2000/svg"><path d="m32 61c16.0163 0 29-12.9837 29-29s-12.9837-29-29-29-29 12.9837-29 29 12.9837 29 29 29z" fill="#4da6ff"/><path clip-rule="evenodd" d="m48.7998 19.3999c-.5.37-1.12.6-1.8.6-1.66 0-3-1.34-3-3 0-.68.231-1.3.611-1.8.54-.73 1.409-1.2 2.389-1.2 1.66 0 3 1.34 3 3 0 .98-.47 1.85-1.2 2.4zm1.5098 35.0801c-.79-.54-1.31-1.45-1.31-2.48 0-1.66 1.34-3 3-3 1.661 0 3 1.34 3 3s-1.339 3-3 3c-.629 0-1.21-.19-1.69-.52zm-18.3096-12.48c1.66 0 3 1.34 3 3s-1.34 3-3 3-3-1.34-3-3 1.34-3 3-3z" fill="#cef" fill-rule="evenodd"/><path d="m14.463 20.462c-2.184 3.313-3.463 7.274-3.463 11.538 0 11.598 9.402 21 21 21s21-9.402 21-21c0-4.757-1.582-9.145-4.247-12.666m-4.148-4.131c-3.51-2.639-7.875-4.203-12.605-4.203-5.799 0-11.047 2.353-14.848 6.153m-9.693-.596c-2.823 4.471-4.459 9.764-4.459 15.443 0 16.016 12.983 29 29 29 6.9472 0 13.3241-2.4422 18.3183-6.5155m4.1767-4.1805c4.067-4.992 6.505-11.363 6.505-18.304 0-16.016-12.983-29-29-29-8.636 0-15.209 3.25-20.469 8.531l20.469 20.469m-11.68-5.68c-.838 1.718-1.32 3.64-1.32 5.68 0 6.124 4.233 11.259 9.934 12.637m6.136-.002c5.699-1.379 9.93-6.513 9.93-12.635 0-7.18-5.82-13-13-13-3.59 0-6.84 1.455-9.192 3.808m4.192 9.192c0 2.761 2.238 5 5 5s5-2.239 5-5-2.238-5-5-5c-1.436 0-2.65.468-3.563 1.437m21.8813 26.0475c.4798.3254 1.0586.5155 1.6817.5155 1.656 0 3-1.343 3-3s-1.344-3-3-3-3 1.343-3 3c0 1.0336.5229 1.945 1.3183 2.4845zm-18.3183-12.4845c-1.656 0-3 1.343-3 3s1.344 3 3 3 3-1.343 3-3-1.344-3-3-3zm15-28c-1.656 0-3 1.343-3 3s1.344 3 3 3 3-1.343 3-3-1.344-3-3-3z" stroke="#12131a" stroke-linecap="round" stroke-linejoin="round"/></svg>