<svg viewBox="0 0 64 64" xmlns="http://www.w3.org/2000/svg"><path d="m22.9 26c0 1-.8 1.9-1.9 1.9h-8.4c-1 0-1.9-.8-1.9-1.9v-2.4c0-1 .9-1.9 1.9-1.9h8.4c1 0 1.9.8 1.9 1.9zm34.1-.1c0 .6-.5 1-1 1h-4.5c-.6 0-1-.5-1-1v-1.3c0-.6.5-1 1-1h4.5c.6 0 1 .5 1 1zm2.9 30c0 2.6-2.1 4.7-4.7 4.7h-46.3c-2.6 0-4.7-2.1-4.7-4.7v-1.4h55.7z" fill="#212528"/><path d="m4.1 29.6c0-2.6 2.1-4.7 4.7-4.7h46.3c2.6 0 4.7 2.1 4.7 4.7v1.4h-55.7z" fill="#51575b"/><path d="m4.1 30.8h55.7v24.6h-55.7z" fill="#3e4347"/><path d="m51.7 28.8h-27.9l2.8-15.3c.2-.9 1.4-2.2 2.1-2.5 4.3-1.9 13.9-1.9 18.1 0 .7.3 1.9 1.7 2.1 2.5z" fill="#51575b"/><path d="m50.4 37.8h-25.2l2.5-12.7c.2-.7 1.3-1.9 1.9-2.1 3.8-1.6 12.5-1.6 16.4 0 .6.3 1.7 1.4 1.9 2.1z" fill="#3e4347"/><path d="m56.9 44.8c0 10.6-8.6 19.2-19.2 19.2s-19.2-8.6-19.2-19.2 8.6-19.2 19.2-19.2c10.6.1 19.2 8.7 19.2 19.2" fill="#788287"/><path d="m54.8 44.8c0 9.4-7.6 17-17 17s-17-7.6-17-17 7.6-17 17-17 17 7.6 17 17" fill="#212528"/><circle cx="37.8" cy="44.8" fill="#3e4347" r="13.8"/><circle cx="37.8" cy="44.8" fill="#212528" r="7.5"/><g fill="#f5f5f5"><path d="m47.9 38.9c0 2.4-1.9 4.3-4.3 4.3s-4.3-1.9-4.3-4.3 1.9-4.3 4.3-4.3 4.3 2 4.3 4.3" opacity=".5"/><circle cx="35.1" cy="47.5" opacity=".5" r="2.7"/><circle cx="30.3" cy="52.3" opacity=".5" r="1.6"/></g><path d="m17.2 51.5c0 1-.8 1.9-1.9 1.9h-8.1c-1 0-1.9-.8-1.9-1.9v-16.9c0-1 .8-1.9 1.9-1.9h8.1c1 0 1.9.8 1.9 1.9z" fill="#636c72"/><circle cx="12.9" cy="28.2" fill="#212528" r="2.8"/><path d="m46 17.4c0 1-.8 1.7-1.7 1.7h-13.1c-1 0-1.7-.8-1.7-1.7v-1.8c0-1 .8-1.7 1.7-1.7h13.1c1 0 1.7.8 1.7 1.7z" fill="#fff"/><path d="m42.5 15.2 12-7.9-2.2-2.9zm14 3.7v-3.4l-12.3 2.3zm-11.4-18.9h-4.1l-2.2 14.5zm-11.5 15.2-10.2-10.8-2.3 2.9zm.3-15.2h-4.2l6.9 14.5zm-15.2 15.5v3.4l12.9-1.1z" fill="#ffce31"/></svg>