<svg enable-background="new 0 0 128 128" viewBox="0 0 128 128" xmlns="http://www.w3.org/2000/svg" xmlns:xlink="http://www.w3.org/1999/xlink"><linearGradient id="a" gradientUnits="userSpaceOnUse" x1="4.8354" x2="122.96" y1="104.79" y2="104.79"><stop offset="0" stop-color="#d4d4d4"/><stop offset=".5163" stop-color="#616161"/><stop offset=".5892" stop-color="#696969"/><stop offset=".7023" stop-color="#7f7f7f"/><stop offset=".8414" stop-color="#a2a2a2"/><stop offset="1" stop-color="#d4d4d4"/></linearGradient><linearGradient id="b" gradientUnits="userSpaceOnUse" x1="6.8113" x2="121" y1="75.134" y2="75.134"><stop offset=".0046512" stop-color="#ffc107"/><stop offset=".8047" stop-color="#ff8f00"/><stop offset=".8687" stop-color="#ff9300"/><stop offset=".9362" stop-color="#ffa000"/><stop offset="1" stop-color="#ffb300"/></linearGradient><linearGradient id="c" gradientUnits="userSpaceOnUse" x1="6.7641" x2="121" y1="78.703" y2="78.703"><stop offset=".0046512" stop-color="#fff8e1"/><stop offset=".8047" stop-color="#dbd5c2"/><stop offset=".8687" stop-color="#dfd9c6"/><stop offset=".9362" stop-color="#ece5d1"/><stop offset="1" stop-color="#fff8e1"/></linearGradient><radialGradient id="d" cx="63.896" cy="32.143" gradientUnits="userSpaceOnUse" r="43.474"><stop offset="0" stop-color="#474747"/><stop offset="1" stop-color="#d4d4d4"/></radialGradient><linearGradient id="e" gradientUnits="userSpaceOnUse" x1="7.059" x2="121.6" y1="31.004" y2="31.004"><stop offset="0"/><stop offset="1" stop-color="#d4d4d4"/></linearGradient><linearGradient id="f" gradientUnits="userSpaceOnUse" x1="64.33" x2="64.33" y1="16.578" y2="45.004"><stop offset="0" stop-color="#4d4d4d"/><stop offset=".1343" stop-color="#545454"/><stop offset=".3425" stop-color="#6a6a6a"/><stop offset=".5987" stop-color="#8e8e8e"/><stop offset=".8904" stop-color="#bfbfbf"/><stop offset="1" stop-color="#d4d4d4"/></linearGradient><clipPath id="g"><ellipse cx="64.33" cy="31" rx="57.27" ry="14.64"/></clipPath><linearGradient id="h" gradientUnits="userSpaceOnUse" x1="64.546" x2="64.546" y1="22.681" y2="37.669"><stop offset="0" stop-color="#9c9c9c"/><stop offset="1" stop-color="#fff"/></linearGradient><path d="m122.96 103.74c0 9.29-26.44 18.93-59.06 18.93s-59.06-9.65-59.06-18.93 26.44-16.82 59.06-16.82 59.06 7.53 59.06 16.82z" fill="url(#a)"/><path d="m6.81 32 .23 70.93c0 3.18 25.76 15.34 56.98 15.34s56.98-12 56.98-16.79v-69.48z" fill="url(#b)"/><path d="m64.23 65.14c-44.14 0-57.47-10.06-57.47-10.06l.26 33.55c0 1.58 25.65 13.72 56.99 13.72 31.33 0 56.99-12.1 56.99-14.48v-32.8s-12.63 10.07-56.77 10.07z" fill="url(#c)"/><ellipse cx="63.9" cy="32.14" fill="url(#d)" rx="59.06" ry="17.08"/><ellipse cx="64.33" cy="31" fill="url(#e)" rx="57.27" ry="14.64"/><ellipse cx="64.33" cy="31" fill="url(#f)" rx="57.27" ry="14.64"/><ellipse clip-path="url(#g)" cx="64.33" cy="35.73" fill="#999" rx="54.45" ry="13.92"/><ellipse clip-path="url(#g)" cx="64.33" cy="39.03" fill="#e6e6e6" rx="50.44" ry="12.9"/><ellipse clip-path="url(#g)" cx="64.75" cy="40.3" fill="#ccc" rx="40.88" ry="11.62"/><ellipse clip-path="url(#g)" cx="64.33" cy="39.86" fill="#e6e6e6" rx="25.78" ry="6.59"/><path d="m76.8 28.07c-5.28-5.22-19-5.2-24.25 0-2.15 2.13-4.22 5.39-1.69 7.87 4.42 4.35 15.47 3.5 21.52 2.43 7.33-1.3 9.12-5.66 4.42-10.3zm-12.23 8.87c-6.34 0-11.49-1.83-11.49-4.08s5.14-4.08 11.49-4.08 11.49 1.83 11.49 4.08-5.15 4.08-11.49 4.08z"/><ellipse cx="58.87" cy="26.8" rx="2.18" ry=".77"/><ellipse cx="69.48" cy="26.8" rx="2.18" ry=".77"/><path d="m76.8 26.4c-5.28-5.22-19-5.2-24.25 0-2.15 2.13-4.22 5.39-1.69 7.87 4.42 4.35 15.47 3.5 21.52 2.43 7.33-1.3 9.12-5.65 4.42-10.3zm-12.23 8.87c-6.34 0-11.49-1.83-11.49-4.08s5.14-4.08 11.49-4.08 11.49 1.83 11.49 4.08-5.15 4.08-11.49 4.08z" fill="url(#h)"/><g fill="#999"><ellipse cx="58.87" cy="25.14" rx="2.18" ry=".77"/><ellipse cx="69.48" cy="25.14" rx="2.18" ry=".77"/></g><path d="m64.03 18.06c15.58 0 30.18 1.74 41.1 4.89 7.55 2.18 15.16 5.87 15.16 9.2v.17c0 1.05 0 1.05-.63 1.45-.88.55-1.41 1.51-1.41 2.54v63.35c0 1.04.54 2.01 1.43 2.56.62.38.62.38.62 1.37v.16c0 .2-.17 5.07-15.21 10.1-11.24 3.76-25.77 5.83-40.91 5.83-15.16 0-29.74-2.07-41.05-5.83-7.39-2.46-15.34-6.66-15.34-10.1 0-.89.73-1.81 1.34-2.43.56-.56.87-1.33.87-2.12l-.1-24.6-.14-23.26c.03-.18.05-.37.05-.56l-.07-14.25c0-.75-.29-1.47-.8-2.02-.56-.61-1.24-1.52-1.24-2.37 0-3.33 7.63-7.02 15.19-9.2 10.95-3.15 25.56-4.88 41.14-4.88m0-3c-32.8 0-59.33 7.65-59.33 17.08 0 1.52.74 3 2.04 4.4l.06 14.25c-.04-.03-.05-.05-.05-.05l.15 23.87.08 24.58c-1.43 1.45-2.21 2.97-2.21 4.54 0 9.29 26.59 18.93 59.39 18.93s59.13-9.65 59.13-18.93c0-1.41.09-2.78-2.04-4.09v-63.34c2.13-1.33 2.04-2.72 2.04-4.16 0-9.43-26.46-17.08-59.26-17.08z" fill="#424242" opacity=".2"/></svg>