<svg enable-background="new 0 0 128 128" viewBox="0 0 128 128" xmlns="http://www.w3.org/2000/svg" xmlns:xlink="http://www.w3.org/1999/xlink"><radialGradient id="a" cx="43.1208" cy="117.387" gradientTransform="matrix(.6689 .6689 .962 -.962 -32.794 103.127)" gradientUnits="userSpaceOnUse" r="24.9412"><stop offset="0" stop-color="#c6e3ee"/><stop offset="1" stop-color="#00a8d3"/></radialGradient><linearGradient id="b" gradientUnits="userSpaceOnUse" x1="36.2481" x2="54.8527" y1="73.6828" y2="90.0549"><stop offset="0" stop-color="#ffab40"/><stop offset=".5441" stop-color="#ff9100"/><stop offset="1" stop-color="#ff6d00"/></linearGradient><radialGradient id="c" cx="75.167" cy="113.167" gradientTransform="matrix(1 0 0 -1 0 128)" gradientUnits="userSpaceOnUse" r="45.501"><stop offset="0" stop-color="#ffab40"/><stop offset=".571" stop-color="#ff9100"/><stop offset="1" stop-color="#ff6d00"/></radialGradient><linearGradient id="d"><stop offset=".5" stop-color="#787676"/><stop offset="1" stop-color="#504f4f"/></linearGradient><linearGradient id="e" gradientUnits="userSpaceOnUse" x1="10.7982" x2="24.3337" xlink:href="#d" y1="98.3782" y2="111.9137"/><linearGradient id="f" gradientUnits="userSpaceOnUse" x1="76.0265" x2="119.1892" xlink:href="#d" y1="8.965" y2="51.1974"/><radialGradient id="g" cx="43.1463" cy="85.0067" gradientUnits="userSpaceOnUse" r="12.2409" xlink:href="#d"/><path d="m119.54 45.96c-4.25 4.25-19.18-3.79-26.57-11.18s-15.16-22.05-10.91-26.3 18.91 3.52 26.3 10.91 15.43 22.32 11.18 26.57z" fill="url(#a)"/><path d="m74.08 36.83-68.35 68.36c-3.15 3.15-1.87 9.52 2.85 14.24s11.09 5.99 14.24 2.85l68.35-68.35z" fill="url(#b)"/><path d="m77.82 10.29-5.7 5.69-8.67 31.2 17.08 17.08 31.49-8.38 5.69-5.7z" fill="url(#c)"/><path d="m22.93 122.39-17.32-17.32c-.72-.72-.72-1.9 0-2.62l9.26-9.26c.72-.72 1.9-.72 2.62 0l17.31 17.31c.72.72.72 1.9 0 2.62l-9.26 9.26c-.71.73-1.89.73-2.61.01z" fill="url(#e)"/><path d="m112.02 55.88-39.9-39.9c-.79-.79-.79-2.06 0-2.85l8.54-8.54c.79-.79 2.06-.79 2.85 0l39.89 39.89c.79.79.79 2.06 0 2.85l-8.54 8.54c-.78.79-2.06.79-2.84.01z" fill="url(#f)"/><g enable-background="new" fill="#504f4f"><path d="m72.56 12.1h16v2h-16z" opacity=".4" transform="matrix(.7071 -.7071 .7071 .7071 14.3333 60.8035)"/><path d="m77.51 17.05h16v2h-16z" opacity=".4" transform="matrix(.7071 -.7071 .7071 .7071 12.2827 65.7536)"/><path d="m82.46 22h16v2h-16z" opacity=".4" transform="matrix(.7071 -.7071 .7071 .7071 10.2328 70.7034)"/><path d="m87.41 26.95h16v2h-16z" opacity=".4" transform="matrix(.7071 -.7071 .7071 .7071 8.1823 75.6535)"/><path d="m92.36 31.9h16v2h-16z" opacity=".4" transform="matrix(.7071 -.7071 .7071 .7071 6.1317 80.6036)"/><path d="m97.31 36.85h16v2h-16z" opacity=".4" transform="matrix(.7071 -.7071 .7071 .7071 4.0809 85.5529)"/><path d="m102.26 41.8h16v2h-16z" opacity=".4" transform="matrix(.7071 -.7071 .7071 .7071 2.031 90.5027)"/><path d="m107.21 46.75h16v2h-16z" opacity=".4" transform="matrix(.7071 -.7071 .7071 .7071 -.0196 95.4528)"/></g><path d="m46.42 86.1c-1.21 0-2.35-.47-3.2-1.32-1.77-1.77-1.77-4.64 0-6.4l5.7-5.7c.85-.85 1.99-1.32 3.2-1.32s2.35.47 3.2 1.32c1.77 1.77 1.77 4.64 0 6.4l-5.7 5.7c-.85.85-1.98 1.32-3.2 1.32z" fill="url(#g)"/></svg>