<svg height="73" viewBox="0 0 73 73" width="73" xmlns="http://www.w3.org/2000/svg"><g fill="none" fill-rule="nonzero"><rect fill="#fff" height="71" rx="14" stroke="#343b3f" stroke-width="2" width="71" x="1" y="1"/><g transform="translate(14 15)"><path d="m15.9734786.04385965c-.3824013 0-16.4086486 0-15.87273842 0v2.63089368h2.71861289v3.94599772h10.52323193v-3.94599772h2.6308936z" fill="#575f64"/><path d="m45 32.9290022v9.2077851h-9.8482045l-2.6305509-2.6308936h-19.9414064l-2.63089355 2.6308936h-9.84820447v-9.2077851l22.44962992-1.3154468z" fill="#575f64"/><path d="m45 32.9290022v9.2077851h-9.8482045l-2.6305509-2.6308936h-9.9708745v-7.8923383z" fill="#474f54"/><path d="m.10074018 5.3053043h44.89925982v27.6236979h-44.89925982z" fill="#ffe17a"/><path d="m22.5503701 5.3053043h22.4496299v27.6236979h-22.4496299z" fill="#fdbf00"/><path d="m22.5503701 10.5670916c-5.0774397 0-9.2077851 4.1303453-9.2077851 9.2077851 0 5.0774396 4.1303454 9.2077851 9.2077851 9.2077851 5.0774396 0 9.2077851-4.1303455 9.2077851-9.2077851 0-5.0774398-4.1303455-9.2077851-9.2077851-9.2077851z" fill="#575f64"/><path d="m31.7581552 19.7748767c0 5.0774396-4.1303455 9.2077851-9.2077851 9.2077851v-18.4155702c5.0774396 0 9.2077851 4.1303453 9.2077851 9.2077851z" fill="#474f54"/><path d="m25.6811952 18.4594298-1.8945313 5.6825658-2.4725877-.841557.7363624-2.2101151h-2.630551l1.8941886-5.6825658 2.4725877.8418997-.7363623 2.2097724z" fill="#d1ecff"/><path d="m25.6811952 18.4594298-1.8945313 5.6825658-1.2362938-.4207785v-7.892681l1.2362938.4211213-.7363623 2.2097724z" fill="#cbd7f1"/></g></g></svg>