<svg enable-background="new 0 0 128 128" viewBox="0 0 128 128" xmlns="http://www.w3.org/2000/svg" xmlns:xlink="http://www.w3.org/1999/xlink"><linearGradient id="a" gradientTransform="matrix(1 0 0 -1 0 89.2328)" gradientUnits="userSpaceOnUse" x1="63.95" x2="63.95" y1="-14.8422" y2="4.0285"><stop offset="0" stop-color="#e0e0e0"/><stop offset="1" stop-color="#9e9e9e"/></linearGradient><linearGradient id="b" gradientUnits="userSpaceOnUse" x1="63.9" x2="63.9" y1="20.1129" y2="84.671"><stop offset=".0056401" stop-color="#e0e0e0"/><stop offset=".9988" stop-color="#9e9e9e"/></linearGradient><path d="m112.6 85.1h-97.4l-11.2 19h119.9z" fill="url(#a)"/><path d="m19.1 82.4h89.6l11.7 19.7h-112.9zm-1.2-2-13.9 23.7h119.9l-14.1-23.7z" fill="#424242" opacity=".2"/><g fill="#f5f5f5"><path d="m26.8 88h-6.4l.8-1.7h6.5z"/><path d="m36.9 88h-6.5l.8-1.7h6.6z"/><path d="m46.5 88h-6.5l.9-1.7h6.5z"/><path d="m56 88h-6.4l1-1.7h6z"/><path d="m65.4 88h-6.4l.5-1.7h5.4z"/><path d="m75 88h-6.4l-.8-1.7h6.1z"/><path d="m84.8 88h-6.4l-1.2-1.7h6.4z"/><path d="m94.3 88h-6.4l-1.2-1.7h6.5z"/><path d="m107.2 88h-9.6l-1.3-1.7h10z"/><path d="m102.3 90.5h6.4l-1.1-1.6h-6.5z"/><path d="m91.8 90.5h6.4l-1.2-1.6h-6.5z"/><path d="m82.2 90.5h6.4l-1.1-1.6h-6.4z"/><path d="m71.8 90.5h6.5l-1.2-1.6h-6z"/><path d="m62.6 90.5h6.5l-.8-1.6h-5.4z"/><path d="m53.4 90.5h6.4l.4-1.6h-6.2z"/><path d="m43.3 90.5h6.4l.8-1.6h-6.2z"/><path d="m32.1 90.5h6.4l1-1.6h-6.4z"/><path d="m18.9 90.5h9.7l1-1.6h-9.7z"/><path d="m79.9 93.1h6.5l-1.1-1.7h-6.5z"/><path d="m69.7 93.1h6.4l-.9-1.7h-6z"/><path d="m57.6 93.1h6.4l-.2-1.7h-5.7z"/><path d="m46.1 93.1h6.4l.6-1.7h-6.2z"/><path d="m33.9 93.1h6.5l1-1.7h-6.4z"/><path d="m17.7 93.1h12.8l1.1-1.7h-13z"/><path d="m90.8 93.1h19.3l-1.1-1.8h-19.3z"/><path d="m105.5 95.6h6.4l-1.3-1.7h-6.4z"/><path d="m93.5 95.6h6.4l-1.2-1.7h-6.5z"/><path d="m42.1 95.6h43.8l-1-1.7h-41.8z"/><path d="m28.4 95.6h6.4l.8-1.7h-6.3z"/><path d="m16.1 95.6h6.4l.8-1.7h-6.3z"/><path d="m41.4 100h44.8l-1.9-3.5h-41z"/></g><path d="m121.7 108.1h-115.6c-1.2 0-2.1-1-2.1-2.1v-1.8h119.9v1.8c0 1.1-1 2.1-2.2 2.1z" fill="#9e9e9e"/><path d="m122.9 105.1v.8c0 .6-.5 1.1-1.1 1.1h-115.7c-.6 0-1.1-.5-1.1-1.1v-.8zm1-1h-119.9v1.8c0 1.2 1 2.1 2.1 2.1h115.6c1.2 0 2.1-1 2.1-2.1v-1.8z" fill="#424242" opacity=".2"/><path d="m112.6 85.1h-97.4v-62.3c0-1.6 1.3-2.8 2.8-2.8h91.7c1.6 0 2.8 1.3 2.8 2.8z" fill="url(#b)"/><path d="m109.7 22c.5 0 .8.4.8.8v60.3h-93.3v-60.3c0-.5.4-.8.8-.8zm0-2h-91.7c-1.6 0-2.8 1.3-2.8 2.8v62.3h97.4v-62.3c0-1.6-1.3-2.8-2.9-2.8z" fill="#424242" opacity=".2"/><path d="m24 27.2h79.7v49.9h-79.7z" fill="#616161"/></svg>