<svg enable-background="new 0 0 64 64" viewBox="0 0 64 64" xmlns="http://www.w3.org/2000/svg"><circle cx="32" cy="32" fill="#77b3d4" r="32"/><g fill="#231f20"><path d="m32 41.5c3.3 0 6-2.7 6-6v-18c0-3.3-2.7-6-6-6s-6 2.7-6 6v18c0 3.3 2.7 6 6 6z" opacity=".2"/><path d="m32 48.2c-7.2 0-13-5.8-13-13v-3.8c0-.8.7-1.5 1.5-1.5s1.5.7 1.5 1.5v3.8c0 5.5 4.5 10 10 10s10-4.5 10-10v-3.8c0-.8.7-1.5 1.5-1.5s1.5.7 1.5 1.5v3.8c0 7.2-5.8 13-13 13z" opacity=".2"/><path d="m32 55c-.8 0-1.5-.7-1.5-1.5v-6c0-.8.7-1.5 1.5-1.5s1.5.7 1.5 1.5v6c0 .8-.7 1.5-1.5 1.5z" opacity=".2"/><path d="m37 56h-10c-.8 0-1.5-.7-1.5-1.5s.7-1.5 1.5-1.5h10c.8 0 1.5.7 1.5 1.5s-.7 1.5-1.5 1.5z" opacity=".2"/></g><path d="m32 39.5c3.3 0 6-2.7 6-6v-18c0-3.3-2.7-6-6-6s-6 2.7-6 6v18c0 3.3 2.7 6 6 6z" fill="#4f5d73"/><path d="m32 46.2c-7.2 0-13-5.8-13-13v-3.8c0-.8.7-1.5 1.5-1.5s1.5.7 1.5 1.5v3.8c0 5.5 4.5 10 10 10s10-4.5 10-10v-3.8c0-.8.7-1.5 1.5-1.5s1.5.7 1.5 1.5v3.8c0 7.2-5.8 13-13 13z" fill="#fff"/><path d="m32 53c-.8 0-1.5-.7-1.5-1.5v-6c0-.8.7-1.5 1.5-1.5s1.5.7 1.5 1.5v6c0 .8-.7 1.5-1.5 1.5z" fill="#fff"/><path d="m37 54h-10c-.8 0-1.5-.7-1.5-1.5s.7-1.5 1.5-1.5h10c.8 0 1.5.7 1.5 1.5s-.7 1.5-1.5 1.5z" fill="#fff"/></svg>