<?xml version="1.0" encoding="UTF-8"?>
<svg version="1.1" xmlns="http://www.w3.org/2000/svg" width="188" height="150">
<path d="M0 0 C9.05707822 7.04439417 15.30288049 14.92555881 20.47265625 25.08984375 C20.80676514 25.74670166 21.14087402 26.40355957 21.48510742 27.08032227 C29.12336053 42.82279142 28.27475131 60.80130428 22.91015625 77.08984375 C19.73910685 85.49593919 15.51214697 92.66878714 9.09765625 98.96484375 C10.39978058 98.97364311 10.39978058 98.97364311 11.72821045 98.98262024 C19.90932264 99.04052535 28.09016118 99.11258943 36.27100754 99.20055866 C40.47687616 99.24528521 44.68264741 99.28453614 48.88867188 99.3112793 C52.94778545 99.33728973 57.00652477 99.37767567 61.0654068 99.42803001 C62.61389765 99.44471412 64.16245326 99.4562188 65.71102142 99.46245766 C67.88033781 99.47208233 70.04869342 99.50011975 72.21777344 99.5324707 C73.45243347 99.54357376 74.68709351 99.55467682 75.95916748 99.56611633 C79.33049713 99.99442488 80.76478872 100.5225633 83.09765625 102.96484375 C83.59375 106.21484375 83.59375 106.21484375 83.53515625 109.96484375 C83.53322266 111.82109375 83.53322266 111.82109375 83.53125 113.71484375 C83.09765625 116.96484375 83.09765625 116.96484375 81.88771343 118.64373875 C79.49479953 120.40976642 77.9844331 120.34464248 75.02314758 120.3525238 C73.97354858 120.36242844 72.92394958 120.37233307 71.84254456 120.38253784 C70.11511269 120.37578537 70.11511269 120.37578537 68.3527832 120.36889648 C67.13934235 120.37575974 65.92590149 120.38262299 64.6756897 120.38969421 C61.34206652 120.40488593 58.00900147 120.40644618 54.67538476 120.40075183 C51.88321426 120.39765914 49.09109415 120.40375498 46.29893082 120.40979058 C39.69590807 120.42385586 33.09301454 120.42226465 26.48999023 120.41088867 C19.71397938 120.39947127 12.93836729 120.41336992 6.16240913 120.44028515 C0.32432685 120.46259346 -5.51363174 120.46904389 -11.35175353 120.46320873 C-14.82875795 120.45986576 -18.30550842 120.46207088 -21.78247643 120.47945976 C-45.21853313 120.58532899 -66.88031299 119.30770429 -84.77075195 102.29467773 C-98.43238265 88.64231073 -105.1345614 72.59397107 -105.27734375 53.40234375 C-105.20159542 45.86110361 -104.89088117 38.98489809 -101.90234375 31.96484375 C-101.64420898 31.35833984 -101.38607422 30.75183594 -101.12011719 30.12695312 C-97.03196227 20.75543521 -92.36334045 13.09453509 -84.90234375 5.96484375 C-83.98388672 5.01738281 -83.98388672 5.01738281 -83.046875 4.05078125 C-61.02913081 -17.26277069 -24.16850225 -16.94722702 0 0 Z M-58.90234375 33.96484375 C-64.17906763 39.24156763 -67.10785087 45.9663986 -67.40234375 53.40234375 C-67.0600206 61.83057588 -63.91486314 69.08897252 -57.90234375 74.96484375 C-51.23068573 80.21731136 -44.37225163 82.33501706 -35.90234375 81.90234375 C-27.58932448 80.76816438 -21.52617065 76.51978893 -16.34375 70.05078125 C-11.44297556 62.9586036 -10.84194942 55.44799841 -11.90234375 46.96484375 C-14.5636787 38.09372724 -20.35863954 32.44322786 -28.33984375 28.08984375 C-40.08485575 24.38089259 -49.30362848 26.22394434 -58.90234375 33.96484375 Z " fill="#C0C0C0" transform="translate(104.90234375,21.03515625)"/>
<path d="M0 0 C4.89625301 3.4496328 9.26497126 7.99738503 10.75 13.9375 C11.27124414 19.46268784 10.52486404 24.13747202 7.75 28.9375 C3.87421485 33.27263746 -0.41437278 36.46451321 -6.27734375 37.1875 C-12.09748353 37.50586662 -16.466226 36.28939607 -21.25 32.9375 C-25.86064833 28.08418597 -27.91949015 23.657867 -28.25 16.9375 C-27.06439434 10.80653017 -24.75443847 6.23719127 -20.25 1.9375 C-13.8026168 -1.85507835 -7.04868775 -2.30437869 0 0 Z " fill="#C0C0C0" transform="translate(74.25,57.0625)"/>
</svg>
