<svg viewBox="0 0 512 512" xmlns="http://www.w3.org/2000/svg"><path d="m0 0h512v512h-512z"/><path d="m71 32v135h18v-135zm256 0v135h18v-135zm-208 95.604v39.396h18v-39.396zm256 0v39.396h18v-39.396zm-318 57.396v99.27l16 16v186.73h110v-186.73l16-16v-99.27zm256 0v99.27l16 16v186.73h110v-186.73l16-16v-99.27zm-96 7v80h16.432v-80zm256 0v80h16.432v-80zm-393 7h96v18h-96zm256 0h96v18h-96zm-256 32h96v18h-96zm256 0h96v18h-96zm-256 32h96v18h-96zm256 0h96v18h-96zm-224 41a24 24 0 0 1 24 24 24 24 0 0 1 -24 24 24 24 0 0 1 -24-24 24 24 0 0 1 24-24zm256 0a24 24 0 0 1 24 24 24 24 0 0 1 -24 24 24 24 0 0 1 -24-24 24 24 0 0 1 24-24z" fill="#fff"/></svg>