<svg height="16" viewBox="0 0 16 16" width="16" xmlns="http://www.w3.org/2000/svg"><path d="m14.5 4h-12.12c-.057.012-.123.018-.19.018-.552 0-1-.448-1-1 0-.006 0-.013 0-.019l12.81-.499v-1.19c.005-.041.008-.089.008-.138 0-.652-.528-1.18-1.18-1.18-.049 0-.097.003-.144.009l-11.374 1.849c-.771.289-1.31 1.02-1.31 1.877v.034 10.728.01c0 .828.672 1.5 1.5 1.5h13c.828 0 1.5-.672 1.5-1.5 0-.004 0-.007 0-.011v-8.999c0-.012.001-.027.001-.041 0-.801-.649-1.45-1.45-1.45-.018 0-.036 0-.053.001zm-1.5 7c-.828 0-1.5-.672-1.5-1.5s.672-1.5 1.5-1.5 1.5.672 1.5 1.5-.672 1.5-1.5 1.5z" fill="#444"/></svg>