<svg fill="none" height="48" viewBox="0 0 48 48" width="48" xmlns="http://www.w3.org/2000/svg"><path clip-rule="evenodd" d="m6.81815 13.3639c-.45187.4519-.45187 1.1845 0 1.6364.45187.4518 1.18449.4519 1.63636 0l.8187-.8188 4.09039 4.0905-3.2727 3.2728c-.45191.4519-.45191 1.1845 0 1.6364.4518.4519 1.1844.4519 1.6363 0l1.636-1.6361 13.9095 13.9098c1.6774 1.6775 4.1288 2.1095 6.2048 1.2961l1.1586 1.1586c.6059.6059 1.4641.8056 2.2363.5991l2.6731 2.6732c.4518.4519 1.1844.4519 1.6363 0s.4519-1.1845 0-1.6364l-2.6735-2.6736c.2059-.7719.0061-1.6295-.5994-2.2351l-1.1585-1.1585c.8136-2.0762.3816-4.5278-1.2959-6.2054l-13.9095-13.9098 1.6367-1.6367c.4519-.4519.4519-1.1845 0-1.6364-.4518-.45189-1.1845-.45188-1.6363 0l-3.2728 3.2728-4.0903-4.09045.8176-.81767c.4519-.45188.4519-1.18452 0-1.6364-.4518-.45188-1.1844-.45188-1.6363 0zm10.04025 1.4131-4.0903-4.0904-2.0807 2.0807 4.0904 4.0905zm3.2724.0004-5.3534 5.3535 4.406 4.406 5.3534-5.3535zm.6889 11.3959 2.4546 2.4547 1.8587-1.8587c.4519-.4519 1.1845-.4519 1.6364 0 .4519.4518.4519 1.1845 0 1.6364l-1.8587 1.8587 1.6359 1.636 1.8589-1.8589c.4519-.4519 1.1845-.4519 1.6364 0 .4518.4519.4518 1.1845 0 1.6364l-1.8589 1.8589.5039.5039c1.0981 1.0981 2.703 1.3805 4.0618.8472l2.1388-2.1389c.5333-1.3588.2509-2.9637-.8472-4.0619l-7.8672-7.8673zm15.7027 9.9094c-.0084-.011-.0177-.0216-.0277-.0317l-.8241-.8241c-.0696.0775-.1416.1535-.2161.228-.0746.0746-.1507.1467-.2283.2163l.8241.8242c.0102.0101.0209.0194.032.0279.0505-.0898.114-.1742.1904-.2506.0762-.0762.1603-.1395.2497-.19z" fill="#333" fill-rule="evenodd"/></svg>