<svg fill="none" height="48" viewBox="0 0 48 48" width="48" xmlns="http://www.w3.org/2000/svg"><path clip-rule="evenodd" d="m48 0h-48v48h48zm-33 19.9083-.2226.2225 3.9226 3.9227c.1869.1869.3884.3501.6009.4898l5.2423-5.2424c-.1397-.2125-.3029-.414-.4898-.6009l-3.9226-3.9227-.2218.2218.0002.0002-1.4142 1.4142-2.0807 2.0807-1.4142 1.4142zm6.545-6.5452 3.9226 3.9227c.1849.1849.3547.3792.5093.5813l.0359-.0359 9.4416 9.4418c1.6775 1.6776 2.1095 4.129 1.296 6.2052l1.1585 1.1585c.6055.6056.8053 1.4632.5994 2.2351l2.6735 2.6736c.4519.4519.4519 1.1845 0 1.6364-.4518.4519-1.1844.4519-1.6363 0l-2.6731-2.6732c-.7722.2065-1.6304.0068-2.2362-.5991l-1.1585-1.1585c-2.0761.8136-4.5275.3816-6.2051-1.296l-9.4415-9.4418.0361-.0361c-.2022-.1547-.3965-.3244-.5814-.5093l-3.9225-3.9227-1.6361 1.636c-.4518.4519-1.1844.4519-1.6363 0-.45188-.4519-.45188-1.1845 0-1.6364l3.2727-3.2728-4.09036-4.0904-.8187.8187c-.45187.4519-1.18449.4519-1.63636 0s-.45187-1.1845 0-1.6364l.81871-.8187-.00042-.0004 1.4142-1.4143 2.08073-2.08071 1.4142-1.41423.0004.00041.8176-.81767c.4519-.45188 1.1845-.45188 1.6364 0 .4518.45188.4518 1.18452 0 1.6364l-.8177.81767 4.0904 4.09043 3.2727-3.2728c.4519-.45184 1.1845-.45185 1.6364 0 .4518.4519.4518 1.1846 0 1.6364zm-4.6865 1.4139-4.0904-4.0905-2.0807 2.0807 4.0904 4.0905zm7.1507 14.7526c-.4519-.4519-.4519-1.1845 0-1.6364l1.1239-1.1239c.4518-.4519 1.1845-.4519 1.6363 0 .4519.4519.4519 1.1845 0 1.6364l-1.1238 1.1239c-.4519.4519-1.1845.4519-1.6364 0zm3.3661 1.5428c-.4519.4518-.4519 1.1845 0 1.6364.4518.4518 1.1845.4518 1.6363 0l1.0302-1.0303c.4519-.4519.4519-1.1845 0-1.6364-.4518-.4519-1.1844-.4519-1.6363 0z" fill="#333" fill-rule="evenodd"/></svg>