<?xml version="1.0" encoding="UTF-8"?>
<svg version="1.1" xmlns="http://www.w3.org/2000/svg" width="512" height="512">
<path d="M0 0 C2.7527505 1.29814634 5.13220513 2.73274267 7.546875 4.58203125 C8.21847656 5.09507813 8.89007813 5.608125 9.58203125 6.13671875 C10.29746094 6.68972656 11.01289063 7.24273437 11.75 7.8125 C12.50152344 8.39 13.25304687 8.9675 14.02734375 9.5625 C19.75334345 13.98408436 25.37407004 18.52498187 30.96655273 23.11352539 C36.5339886 27.66496077 42.22950177 32.03269262 47.95874023 36.37768555 C53.75501555 40.78334272 59.4132177 45.33027052 65 50 C63.55774684 53.46899838 61.84722592 55.1755857 58.875 57.4375 C57.98039062 58.13101563 57.08578125 58.82453125 56.1640625 59.5390625 C55.66293945 59.92610352 55.16181641 60.31314453 54.64550781 60.71191406 C51.47322212 63.19514542 48.36860041 65.76244501 45.25 68.3125 C40.20420866 72.42425799 35.1297175 76.49346555 30 80.5 C22.24569677 86.5592227 14.62332184 92.77732677 7 99 C-1.18477581 105.68097011 -9.3840373 112.3336976 -17.71142578 118.83642578 C-22.87648012 122.87934101 -27.96017134 127.01861851 -33.04125977 131.16625977 C-37.30310909 134.63893482 -41.60131101 138.05826306 -45.9375 141.4375 C-51.94295251 146.12065104 -57.81850309 150.95081655 -63.68334961 155.80834961 C-68.62534335 159.89251734 -73.63225604 163.87891521 -78.69140625 167.81640625 C-83.36099212 171.46485262 -87.93635672 175.22019832 -92.5 179 C-97.76257287 183.35772558 -103.05588695 187.66498036 -108.4375 191.875 C-109.00573486 192.32053223 -109.57396973 192.76606445 -110.15942383 193.22509766 C-112.75709943 195.25839165 -115.36347244 197.27783757 -117.984375 199.28125 C-118.87640625 199.9721875 -119.7684375 200.663125 -120.6875 201.375 C-121.45449219 201.96023437 -122.22148438 202.54546875 -123.01171875 203.1484375 C-126.04733821 205.97532085 -127.74929939 208.74649694 -128.5625 212.8125 C-126.8965768 222.25273144 -117.83816961 227.45898899 -110.62988281 232.77832031 C-108.25904462 234.55538357 -105.97301996 236.4274639 -103.6875 238.3125 C-102.800625 239.04339844 -101.91375 239.77429688 -101 240.52734375 C-100.01 241.34332031 -99.02 242.15929687 -98 243 C-89.82613662 249.69312301 -81.61652935 256.33334539 -73.28979492 262.83544922 C-68.12436033 266.87872509 -63.0402332 271.01828829 -57.95874023 275.16625977 C-53.69689091 278.63893482 -49.39868899 282.05826306 -45.0625 285.4375 C-39.06155866 290.11713316 -33.19036363 294.94358679 -27.32983398 299.79736328 C-22.24112617 304.00261087 -17.08650766 308.11137956 -11.88232422 312.17236328 C-7.52559655 315.57515461 -3.23482388 319.05120943 1.03515625 322.5625 C10.18114678 330.08173332 19.37001078 337.5407474 28.70141602 344.82885742 C34.62593086 349.46707913 40.45331332 354.22275509 46.28515625 358.9765625 C54.41583179 365.64553535 54.41583179 365.64553535 62.76953125 372.02734375 C63.87361328 373.00380859 63.87361328 373.00380859 65 374 C65 374.99 65 375.98 65 377 C62.98046875 378.91015625 62.98046875 378.91015625 60.1875 381.0625 C56.14907808 384.25290502 52.28169327 387.50207015 48.5 391 C44.05272888 395.09351091 39.45282537 398.92442499 34.75 402.71875 C31.91900422 405.06718968 29.20616402 407.50909902 26.5 410 C21.97593212 414.16214245 17.30870624 418.0870852 12.52734375 421.94921875 C9.29598385 424.57126504 6.1445053 427.27476207 3 430 C-1.14415205 428.29957397 -4.24379837 425.3584817 -7.5625 422.4375 C-8.82206003 421.34276361 -10.08248534 420.24902202 -11.34375 419.15625 C-11.96507812 418.61742187 -12.58640625 418.07859375 -13.2265625 417.5234375 C-15.63774159 415.4521603 -18.09467909 413.44078991 -20.5625 411.4375 C-25.14972032 407.71248849 -29.66438155 403.91023414 -34.16650391 400.08349609 C-37.55973475 397.20442157 -40.9827672 394.36788508 -44.4375 391.5625 C-49.30049424 387.60556582 -54.05700203 383.53564058 -58.80615234 379.44384766 C-63.22031766 375.64836633 -67.70333198 371.94722087 -72.22265625 368.27734375 C-75.90759143 365.25580056 -79.53568321 362.16964049 -83.16650391 359.08349609 C-86.55973475 356.20442157 -89.9827672 353.36788508 -93.4375 350.5625 C-98.30049424 346.60556582 -103.05700203 342.53564058 -107.80615234 338.44384766 C-112.22031766 334.64836633 -116.70333198 330.94722087 -121.22265625 327.27734375 C-124.90759143 324.25580056 -128.53568321 321.16964049 -132.16650391 318.08349609 C-135.55973475 315.20442157 -138.9827672 312.36788508 -142.4375 309.5625 C-147.30049424 305.60556582 -152.05700203 301.53564058 -156.80615234 297.44384766 C-161.22031766 293.64836633 -165.70333198 289.94722087 -170.22265625 286.27734375 C-173.34396367 283.71795946 -176.4245003 281.11406209 -179.5 278.5 C-183.46903543 275.12716411 -187.46017021 271.78823355 -191.5 268.5 C-198.30413786 262.95807902 -204.97975878 257.26691077 -211.66601562 251.58398438 C-217.24285638 246.84596338 -222.82582784 242.12157211 -228.5 237.5 C-230.33381385 236.0005875 -232.16711545 234.50054834 -234 233 C-234.55816406 232.54560547 -235.11632812 232.09121094 -235.69140625 231.62304688 C-237.46737119 230.17300078 -239.23431921 228.71254273 -241 227.25 C-241.55236328 226.80205078 -242.10472656 226.35410156 -242.67382812 225.89257812 C-246.70968131 222.52686661 -249.57811448 219.61112929 -250.43359375 214.31640625 C-250.44210999 208.3124589 -250.20335711 204.61344073 -246 200 C-240.92652295 195.09185011 -235.44118437 190.68944961 -229.91015625 186.3125 C-226.3771308 183.5050489 -222.87520071 180.66069842 -219.375 177.8125 C-218.69236084 177.25731689 -218.00972168 176.70213379 -217.30639648 176.13012695 C-215.90306306 174.98872294 -214.49982497 173.8472017 -213.09667969 172.70556641 C-209.06811156 169.42848479 -205.03716738 166.15432556 -201.00585938 162.88061523 C-197.64432765 160.15039757 -194.2849562 157.41759962 -190.9296875 154.6796875 C-184.60113824 149.51982504 -178.25398092 144.39342572 -171.8125 139.375 C-166.72939427 135.41352525 -161.78827729 131.31595291 -156.89379883 127.12451172 C-153.00715398 123.81159567 -149.03236257 120.63337505 -145 117.5 C-139.75802578 113.42605858 -134.65567235 109.21979362 -129.60668945 104.90966797 C-125.72051545 101.5959129 -121.77039748 98.3805778 -117.76953125 95.20703125 C-114.28631542 92.43126687 -110.83014172 89.62308435 -107.375 86.8125 C-106.69203857 86.2570752 -106.00907715 85.70165039 -105.30541992 85.12939453 C-103.90242221 83.98822213 -102.49950959 82.8469451 -101.09667969 81.70556641 C-97.73237286 78.96883521 -94.36611672 76.2345045 -91 73.5 C-89.6666567 72.41667893 -88.33332338 71.33334558 -87 70.25 C-59 47.5 -59 47.5 -31 24.75 C-30.00842896 23.94429565 -30.00842896 23.94429565 -28.99682617 23.12231445 C-27.67421187 22.04776108 -26.35145977 20.9733773 -25.02856445 19.89916992 C-21.53003395 17.05793647 -18.03450992 14.21310097 -14.54296875 11.36328125 C-13.81400391 10.76902344 -13.08503906 10.17476562 -12.33398438 9.5625 C-10.93466505 8.42165367 -9.53618582 7.27977591 -8.13867188 6.13671875 C-7.50896484 5.62367187 -6.87925781 5.110625 -6.23046875 4.58203125 C-5.67770264 4.13061768 -5.12493652 3.6792041 -4.55541992 3.21411133 C-3.09048261 2.07062785 -1.54627001 1.03084667 0 0 Z " fill="#FEFEFE" transform="translate(250,41)"/>
<path d="M0 0 C4.31488856 2.80305542 8.40871686 5.79739589 12.4375 9 C13.03949219 9.47566406 13.64148438 9.95132813 14.26171875 10.44140625 C19.32203572 14.44574799 24.3582015 18.48040002 29.39233398 22.51757812 C33.57569366 25.8698891 37.77974296 29.19429076 42 32.5 C46.85688584 36.30437785 51.68722275 40.13997773 56.5 44 C61.3359692 47.87763496 66.1862833 51.73557846 71.0625 55.5625 C71.63758301 56.01383301 72.21266602 56.46516602 72.80517578 56.93017578 C75.67633313 59.18176335 78.5501622 61.42989571 81.42578125 63.67578125 C88.38116324 69.11534787 95.25947754 74.6391963 102.09790039 80.22509766 C106.28562649 83.6356623 110.51808092 86.9749893 114.8125 90.25 C118.92837873 93.39834007 123.02171552 96.56811352 127.0625 99.8125 C127.91972656 100.49957031 128.77695312 101.18664062 129.66015625 101.89453125 C132.98862578 104.88959815 136.7193902 108.30182884 137.203125 112.953125 C137.22632813 114.09007812 137.22632813 114.09007812 137.25 115.25 C137.27578125 115.99765625 137.3015625 116.7453125 137.328125 117.515625 C136.57581396 123.21169427 133.73933846 126.65254633 129.3125 130.0625 C127.84683594 131.21298828 127.84683594 131.21298828 126.3515625 132.38671875 C125.81563477 132.80228027 125.27970703 133.2178418 124.72753906 133.64599609 C122.19525382 135.63074086 119.71093819 137.67271666 117.22143555 139.71069336 C110.96851543 144.82726477 104.65764472 149.86298121 98.28979492 154.83544922 C93.81602741 158.3373184 89.40155429 161.90792696 85 165.5 C79.47660315 170.00759973 73.90815564 174.44842642 68.2890625 178.8359375 C63.81563292 182.33776247 59.40132798 185.90811164 55 189.5 C49.47660315 194.00759973 43.90815564 198.44842642 38.2890625 202.8359375 C33.81563292 206.33776247 29.40132798 209.90811164 25 213.5 C19.47660315 218.00759973 13.90815564 222.44842642 8.2890625 226.8359375 C3.81562414 230.33776934 -0.59835498 233.90848989 -5 237.5 C-10.22675744 241.75862806 -15.46570762 246.00037002 -20.75 250.1875 C-21.32234375 250.64511719 -21.8946875 251.10273438 -22.484375 251.57421875 C-25.20552486 253.71974076 -27.81280364 255.61527149 -31 257 C-32.32451172 255.85724609 -32.32451172 255.85724609 -33.67578125 254.69140625 C-40.12683277 249.13701203 -46.61378813 243.64401639 -53.22265625 238.27734375 C-56.90316725 235.25942826 -60.52709537 232.177202 -64.15332031 229.09448242 C-67.67472693 226.10632038 -71.22928462 223.16415027 -74.8125 220.25 C-79.29904235 216.59892814 -83.68165963 212.84814858 -88 209 C-86.48147523 205.16054818 -84.22197262 203.32508945 -81 200.8125 C-77.22448968 197.80880624 -73.55939005 194.75707006 -70 191.5 C-66.68010514 188.47717579 -63.30235888 185.57487839 -59.8125 182.75 C-53.37288007 177.53481485 -47.14544597 172.08668248 -40.89648438 166.64648438 C-37.92144811 164.06362591 -34.9305594 161.49943086 -31.9375 158.9375 C-31.36410889 158.44660889 -30.79071777 157.95571777 -30.19995117 157.44995117 C-29.04469482 156.46114797 -27.88934024 155.47245951 -26.73388672 154.48388672 C-23.24437924 151.49751295 -19.75766136 148.50787928 -16.27172852 145.51733398 C-13.23493455 142.91271727 -10.19447301 140.31255578 -7.1484375 137.71875 C-6.51679688 137.17992187 -5.88515625 136.64109375 -5.234375 136.0859375 C-4.02981738 135.05852071 -2.82415667 134.03239522 -1.6171875 133.0078125 C5.27870001 127.66094387 5.27870001 127.66094387 8.203125 119.87890625 C8.32879552 113.87559689 8.32879552 113.87559689 5 109 C5 108.34 5 107.68 5 107 C4.40558105 106.72397949 3.81116211 106.44795898 3.19873047 106.16357422 C1.11725276 105.06205048 -0.42210824 103.93496751 -2.1796875 102.3828125 C-2.77144775 101.86452881 -3.36320801 101.34624512 -3.97290039 100.81225586 C-4.60059326 100.25546143 -5.22828613 99.69866699 -5.875 99.125 C-7.22493171 97.94103136 -8.57519967 96.75744601 -9.92578125 95.57421875 C-10.60721191 94.97528809 -11.28864258 94.37635742 -11.99072266 93.75927734 C-14.99491744 91.12887302 -18.02709935 88.5317638 -21.0625 85.9375 C-22.22007524 84.94664164 -23.37762731 83.95575621 -24.53515625 82.96484375 C-25.10637207 82.47612793 -25.67758789 81.98741211 -26.26611328 81.48388672 C-29.17894046 78.99104476 -32.08934086 76.49537263 -35 74 C-36.15754058 73.00779909 -37.31509269 72.01561161 -38.47265625 71.0234375 C-46.6484375 64.015625 -54.82421875 57.0078125 -63 50 C-59.2381273 46.08850736 -55.25774191 42.67181931 -51 39.3125 C-50.33846924 38.7870459 -49.67693848 38.2615918 -48.99536133 37.72021484 C-43.87368516 33.66287071 -38.70579804 29.6685506 -33.515625 25.69921875 C-29.30163717 22.4726549 -25.12210754 19.20200722 -20.9375 15.9375 C-14.01754412 10.5433933 -7.04894924 5.22451532 0 0 Z " fill="#FEFEFE" transform="translate(375,136)"/>
</svg>
