<svg height="32" viewBox="0 0 84 32" width="84" xmlns="http://www.w3.org/2000/svg"><path d="m79.04 7.04h.736v3.776h-.576l-.448.736h-8.032l.352.352v1.28l-.288.32h-1.728l-.928.288-.768.672-.768 1.44-3.488 7.776-.672.832-.928.576-1.056.352-1.664.16h-29.376l-2.048-.352-19.424-5.344-.48-.512-.384.864-.448.256-1.152.128-.768.032-.224-.32-.224-.8.128-3.328.128-3.648-.256-4.16-.128-2.144.128-1.216.448-.672.48-.192h1.824l.416.416.16.608 1.28-.864 16.928-.576 1.344-.48.48-.672h1.088v.672h1.152l.672-1.184.416-.32h3.968l.256.192 1.184.992h4.544l.928.928h4.96v-.928h1.12v1.12h6.752l.544.544h20.288v-.48h2.336l1.536 1.44v1.12zm-51.424 8.544.192-1.088-.192-.8-.448-.544-.384-.224-2.24-.256-1.056.128-.576.128-.352.448-.192 1.12.224.928.64.768 1.12.48h1.472l1.056-.288zm25.536-7.552v-.352h-16.032v.352h15.328v13.504h-15.328v-7.712l.192-.416h-2.208l-.352.448-.16.736.128.736.192.64.352.544-.224.288-.448-.384-.576-.928-.416-1.408-.064-.576-.352.416-.256.576-.128.608v.448l.224.32.256.288.224.416-.128.704h-.704l-.48.512-.384.544-.128.416v.416l-.128.288-.384.224-.416.8-.32.704-.128.864v.416l.256.192h6.912v-.032h15.68v-14.592zm9.504 6.56.192-.8-.096-.608-.352-.256-.608-.128h-3.904l-.48.16-.32.448-.096.704v6.304l.096.48.288.448.672.128.704-.064.544-.384.448-.736z"/></svg>