<?xml version="1.0" encoding="UTF-8"?>
<svg version="1.1" xmlns="http://www.w3.org/2000/svg" width="268" height="150">
<path d="M0 0 C0.66 0 1.32 0 2 0 C3.64689606 3.29379212 3.179078 6.96331412 3.2109375 10.5859375 C3.23900563 12.33855101 3.26767009 14.09115506 3.296875 15.84375 C3.3381479 18.61099997 3.37502925 21.37807309 3.40136719 24.14550781 C3.42897064 26.81352384 3.47484124 29.48073234 3.5234375 32.1484375 C3.5283168 33.38767471 3.5283168 33.38767471 3.53329468 34.65194702 C3.62632113 38.99851625 3.73054374 41.78266393 7 45 C7.66 44.67 8.32 44.34 9 44 C10.97724061 43.90327168 12.9579006 43.87020097 14.9375 43.875 C15.99839844 43.87242188 17.05929688 43.86984375 18.15234375 43.8671875 C21 44 21 44 24 45 C24.845625 44.979375 25.69125 44.95875 26.5625 44.9375 C29 45 29 45 31 47 C32.33599921 46.67751743 33.66893378 46.34227417 35 46 C36.66666667 46.33333333 38.33333333 46.66666667 40 47 C41.33783393 46.68521554 42.67203709 46.35412344 44 46 C44.99 46.33 45.98 46.66 47 47 C49.00875442 46.72428861 51.01178687 46.39764263 53 46 C53 47.32 53 48.64 53 50 C54.58252563 50.03758423 54.58252563 50.03758423 56.19702148 50.07592773 C60.09770628 50.16984109 63.99820625 50.27010034 67.89868164 50.37231445 C69.58939299 50.41572439 71.28014991 50.45739489 72.97094727 50.49731445 C75.39613606 50.55487094 77.82109415 50.61860649 80.24609375 50.68359375 C81.38672523 50.70866249 81.38672523 50.70866249 82.55039978 50.73423767 C87.88612829 50.88612829 87.88612829 50.88612829 89 52 C89.09946453 53.76859193 89.13080217 55.54111451 89.1328125 57.3125 C89.13410156 58.38757812 89.13539063 59.46265625 89.13671875 60.5703125 C89.13285156 61.70210937 89.12898438 62.83390625 89.125 64 C89.12886719 65.13179688 89.13273437 66.26359375 89.13671875 67.4296875 C89.13478516 69.04230469 89.13478516 69.04230469 89.1328125 70.6875 C89.13168457 71.68136719 89.13055664 72.67523438 89.12939453 73.69921875 C89 76 89 76 88 77 C85.40846893 77.15996166 82.8404798 77.25938697 80.24609375 77.31640625 C79.47064713 77.33718735 78.6952005 77.35796844 77.89625549 77.37937927 C75.41009692 77.44495802 72.92382955 77.50379799 70.4375 77.5625 C68.75584796 77.60567733 67.07420706 77.64929136 65.39257812 77.69335938 C61.26183129 77.80064779 57.13097464 77.90189132 53 78 C53 79.32 53 80.64 53 82 C50.91673869 82.02709444 48.83337559 82.04643873 46.75 82.0625 C45.00976562 82.07990234 45.00976562 82.07990234 43.234375 82.09765625 C40.59022872 82.01782092 38.50173909 81.78643778 36 81 C35.7834375 82.2065625 35.7834375 82.2065625 35.5625 83.4375 C35 86 35 86 34 87 C32.39836084 87.09919077 30.79220082 87.12969898 29.1875 87.125 C28.31480469 87.12757812 27.44210938 87.13015625 26.54296875 87.1328125 C24 87 24 87 21.92578125 86.3046875 C19.87120844 85.78647845 19.87120844 85.78647845 17.734375 87.15234375 C15.79848617 88.83106739 15.79848617 88.83106739 15.828125 91.06640625 C16.03695312 92.30197266 16.03695312 92.30197266 16.25 93.5625 C17.94741361 106.80932578 17.17027606 119.86207887 15 133 C11.33012779 134.22329074 8.66032178 133.88021006 4.8125 133.5625 C3.54019531 133.46066406 2.26789063 133.35882813 0.95703125 133.25390625 C-0.01878906 133.17011719 -0.99460938 133.08632812 -2 133 C-2.84134988 129.03163308 -3.33330595 125.11933421 -3.71875 121.0859375 C-3.95949178 118.81048022 -3.95949178 118.81048022 -5 116 C-5.09225211 114.50225982 -5.1300019 113.00057026 -5.125 111.5 C-5.12757813 110.7265625 -5.13015625 109.953125 -5.1328125 109.15625 C-5 107 -5 107 -4 104 C-3.80462346 100.66135965 -3.91138131 97.34144581 -4 94 C-3.979375 92.88625 -3.95875 91.7725 -3.9375 90.625 C-5.2485755 87.38587228 -6.14251513 87.16202463 -9.25 85.75 C-10.82598855 85.14710505 -12.40977438 84.56427361 -14 84 C-14.74636719 83.63519531 -15.49273437 83.27039063 -16.26171875 82.89453125 C-20.07085139 81.65017836 -23.58713871 81.8248932 -27.5625 81.9375 C-36.01371064 82.13236139 -36.01371064 82.13236139 -40 81 C-39.9184668 81.68102783 -39.83693359 82.36205566 -39.75292969 83.0637207 C-39.39656867 86.1445616 -39.0729474 89.22798536 -38.75 92.3125 C-38.55664062 93.9202832 -38.55664062 93.9202832 -38.359375 95.56054688 C-38.25625 96.58857422 -38.153125 97.61660156 -38.046875 98.67578125 C-37.88977051 100.0975769 -37.88977051 100.0975769 -37.72949219 101.5480957 C-38 104 -38 104 -39.82226562 105.81445312 C-42.6224998 107.33888554 -44.58198403 107.30064343 -47.75 107.1875 C-48.73484375 107.16042969 -49.7196875 107.13335937 -50.734375 107.10546875 C-51.48203125 107.07066406 -52.2296875 107.03585938 -53 107 C-54.26237731 104.47524538 -54.09856404 102.68799534 -54.0625 99.875 C-54.05347656 98.96492188 -54.04445313 98.05484375 -54.03515625 97.1171875 C-54.02355469 96.41851562 -54.01195313 95.71984375 -54 95 C-55.03125 94.95875 -56.0625 94.9175 -57.125 94.875 C-61 94 -61 94 -63.625 91 C-66.9044377 87.54758097 -69.63919895 87.26001984 -74.28125 87.1171875 C-75.1371875 87.11976562 -75.993125 87.12234375 -76.875 87.125 C-77.75414063 87.104375 -78.63328125 87.08375 -79.5390625 87.0625 C-81.69230036 87.01569048 -83.84625763 87.00426484 -86 87 C-86.99 88.98 -86.99 88.98 -88 91 C-90.31 91 -92.62 91 -95 91 C-94.95359375 91.89203125 -94.9071875 92.7840625 -94.859375 93.703125 C-94.82328125 94.87359375 -94.7871875 96.0440625 -94.75 97.25 C-94.70359375 98.41015625 -94.6571875 99.5703125 -94.609375 100.765625 C-95.08631358 104.71467645 -95.92456514 105.57306248 -99 108 C-101.62548828 108.5300293 -101.62548828 108.5300293 -104.5703125 108.57421875 C-105.63121094 108.60193359 -106.69210938 108.62964844 -107.78515625 108.65820312 C-109.43837891 108.67270508 -109.43837891 108.67270508 -111.125 108.6875 C-113.31517613 108.72947202 -115.50529016 108.77486989 -117.6953125 108.82421875 C-119.1496167 108.84101685 -119.1496167 108.84101685 -120.63330078 108.8581543 C-123.01857067 108.84557618 -123.01857067 108.84557618 -125 110 C-125.56773431 112.76657832 -125.89468796 115.53376039 -126.2421875 118.3359375 C-127.15295099 121.53769368 -128.13391437 122.39804339 -131 124 C-131.66 124 -132.32 124 -133 124 C-133.27714844 124.72703125 -133.55429688 125.4540625 -133.83984375 126.203125 C-134.93238375 128.83699248 -136.19470864 131.25122891 -137.5625 133.75 C-139.7252858 137.97438864 -140.60139842 141.46226924 -140.76171875 146.1875 C-141 148 -141 148 -143 150 C-150.30074134 150.61562071 -157.24093134 148.9964241 -164.375 147.5625 C-165.56222656 147.33240234 -166.74945313 147.10230469 -167.97265625 146.86523438 C-176.70453477 145.14773261 -176.70453477 145.14773261 -179 144 C-178.36612161 140.67123307 -177.138985 138.40513581 -175.25610352 135.60205078 C-174.68203262 134.74080597 -174.10796173 133.87956116 -173.51649475 132.99221802 C-172.58213844 131.60774979 -172.58213844 131.60774979 -171.62890625 130.1953125 C-170.31963313 128.23048763 -169.01038924 126.26564327 -167.70117188 124.30078125 C-165.63142152 121.20979027 -163.55937996 118.12035203 -161.48608398 115.03173828 C-159.48630225 112.04837537 -157.49483543 109.05958748 -155.50390625 106.0703125 C-154.88302628 105.15138214 -154.2621463 104.23245178 -153.62245178 103.28567505 C-148.73815884 96.23509199 -148.73815884 96.23509199 -147 88 C-148.32 88 -149.64 88 -151 88 C-151 87.34 -151 86.68 -151 86 C-151.928125 86.061875 -152.85625 86.12375 -153.8125 86.1875 C-157 86 -157 86 -158.59375 84.73828125 C-163.59010896 78.56222642 -163.38060682 70.54165361 -163 63 C-159.01647791 60.69096728 -156.49885947 61.13483472 -152 62 C-151.96519531 61.24203125 -151.93039063 60.4840625 -151.89453125 59.703125 C-151 57 -151 57 -148.19921875 55.234375 C-146.46091797 54.49960938 -146.46091797 54.49960938 -144.6875 53.75 C-143.53636719 53.24984375 -142.38523438 52.7496875 -141.19921875 52.234375 C-136.95496154 50.59678614 -133.4496328 49.87732258 -128.90234375 49.75390625 C-127.93619141 49.72103516 -126.97003906 49.68816406 -125.97460938 49.65429688 C-123.94608108 49.59298444 -121.91742688 49.53570756 -119.88867188 49.48242188 C-118.92380859 49.44826172 -117.95894531 49.41410156 -116.96484375 49.37890625 C-116.0843335 49.3538501 -115.20382324 49.32879395 -114.29663086 49.30297852 C-111.72548152 49.13556833 -111.72548152 49.13556833 -109 47 C-106.1218683 46.80384366 -103.34283277 46.71998067 -100.46484375 46.734375 C-99.21315147 46.73150482 -99.21315147 46.73150482 -97.93617249 46.72857666 C-96.17350971 46.7272164 -94.41083686 46.73090177 -92.64819336 46.73925781 C-89.94427107 46.74997317 -87.24101116 46.73935039 -84.53710938 46.7265625 C-82.82551936 46.72788386 -81.11392976 46.73044576 -79.40234375 46.734375 C-78.18513893 46.72830231 -78.18513893 46.72830231 -76.94334412 46.72210693 C-71.22992849 46.77007151 -71.22992849 46.77007151 -69 49 C-66.43083343 49.30599063 -63.95241616 49.51087087 -61.375 49.625 C-60.31539062 49.68300781 -60.31539062 49.68300781 -59.234375 49.7421875 C-57.49001476 49.83647724 -55.74504309 49.91932891 -54 50 C-53.67 47.69 -53.34 45.38 -53 43 C-43.26004228 42.42706131 -43.26004228 42.42706131 -39 46 C-39 46.66 -39 47.32 -39 48 C-36.03 47.505 -36.03 47.505 -33 47 C-32.67 45.02 -32.34 43.04 -32 41 C-31.16750732 40.98541748 -30.33501465 40.97083496 -29.47729492 40.95581055 C-26.38510347 40.8947137 -23.29357918 40.82055444 -20.2019043 40.73754883 C-18.2070937 40.68798681 -16.21192743 40.65348867 -14.21679688 40.61914062 C-12.96318359 40.58369141 -11.70957031 40.54824219 -10.41796875 40.51171875 C-9.26063232 40.48553467 -8.1032959 40.45935059 -6.91088867 40.43237305 C-4.08163443 40.1807745 -4.08163443 40.1807745 -2.13085938 38.9921875 C-0.28146773 35.73419185 -0.51767952 32.26554723 -0.48828125 28.61328125 C-0.47033005 27.79627243 -0.45237885 26.97926361 -0.43388367 26.13749695 C-0.37972212 23.52921706 -0.34586692 20.92112075 -0.3125 18.3125 C-0.27933201 16.54359421 -0.24484283 14.77471267 -0.20898438 13.00585938 C-0.12399254 8.67070527 -0.05720965 4.33560616 0 0 Z M-3 43 C-3 43.66 -3 44.32 -3 45 C-2.01 44.67 -1.02 44.34 0 44 C-0.99 43.67 -1.98 43.34 -3 43 Z M-18 46 C-18 46.66 -18 47.32 -18 48 C-17.34 48 -16.68 48 -16 48 C-16 47.34 -16 46.68 -16 46 C-16.66 46 -17.32 46 -18 46 Z M-39 53 C-38 57 -38 57 -38 57 Z M-40 61 C-40 63.64 -40 66.28 -40 69 C-39.67 69 -39.34 69 -39 69 C-39 66.36 -39 63.72 -39 61 C-39.33 61 -39.66 61 -40 61 Z M-103 65 C-102.67 65.99 -102.34 66.98 -102 68 C-101.34 67.34 -100.68 66.68 -100 66 C-100.99 65.67 -101.98 65.34 -103 65 Z M-110.6875 92.5625 C-112.56631438 96.0517267 -111.95974358 98.22957879 -111 102 C-110.01 103.485 -110.01 103.485 -109 105 C-112.60001861 103.13792141 -113.53489703 101.01013392 -114.75 97.3125 C-115.17985483 95.87888841 -115.60082968 94.44245638 -116 93 C-117.65 92.67 -119.3 92.34 -121 92 C-121.02685938 94.14576637 -121.04633088 96.29162645 -121.0625 98.4375 C-121.07410156 99.63246094 -121.08570313 100.82742187 -121.09765625 102.05859375 C-121.33901792 104.88873341 -121.33901792 104.88873341 -120 106 C-116.88354012 106.27742966 -113.75235077 106.23176472 -110.625 106.25 C-109.7484375 106.270625 -108.871875 106.29125 -107.96875 106.3125 C-107.12570313 106.31765625 -106.28265625 106.3228125 -105.4140625 106.328125 C-104.6401416 106.3374707 -103.8662207 106.34681641 -103.06884766 106.35644531 C-100.45045861 105.90531857 -99.57621258 105.10832757 -98 103 C-97.63680691 100.02807238 -97.63680691 100.02807238 -97.8125 96.8125 C-97.83957031 95.72582031 -97.86664063 94.63914062 -97.89453125 93.51953125 C-97.94673828 92.27236328 -97.94673828 92.27236328 -98 91 C-104.60972043 90.43305248 -104.60972043 90.43305248 -110.6875 92.5625 Z " fill="#FEFEFE" transform="translate(179,0)"/>
</svg>
