<?xml version="1.0" encoding="UTF-8"?>
<svg version="1.1" xmlns="http://www.w3.org/2000/svg" width="84" height="32">
<path d="M0 0 C2.21373187 0.24737978 4.4209491 0.5525637 6.625 0.875 C16.95532413 2.27108416 27.34175227 2.42694906 37.74853516 2.65771484 C39.05870605 2.68945801 40.36887695 2.72120117 41.71875 2.75390625 C42.90404297 2.77783447 44.08933594 2.8017627 45.31054688 2.82641602 C48 3 48 3 49 4 C49.125 7 49.125 7 49 10 C48 11 48 11 44.6875 11.4375 C41.40242401 11.93861329 39.69643422 12.21327187 37 14 C35.5163763 16.35490394 35.5163763 16.35490394 34.375 19.0625 C32.19444444 23.90277778 32.19444444 23.90277778 30 25 C27.59602458 25.14773556 25.22266349 25.23630632 22.81640625 25.2734375 C21.73110878 25.29182175 21.73110878 25.29182175 20.62388611 25.31057739 C18.27005752 25.34275075 15.91650681 25.36140543 13.5625 25.375 C12.37140625 25.38333862 12.37140625 25.38333862 11.15625 25.3918457 C-1.32331446 25.43616234 -12.14268443 24.0291849 -24 20 C-24.99 20 -25.98 20 -27 20 C-27 14.39 -27 8.78 -27 3 C-24.380625 2.855625 -21.76125 2.71125 -19.0625 2.5625 C-8.81575284 2.83844153 -8.81575284 2.83844153 0 0 Z M-8 12 C-8 12.99 -8 13.98 -8 15 C-6.68 15 -5.36 15 -4 15 C-4 14.01 -4 13.02 -4 12 C-5.32 12 -6.64 12 -8 12 Z M27 12 C25.58422523 13.18424326 25.58422523 13.18424326 25.9375 16.5625 C25.958125 17.696875 25.97875 18.83125 26 20 C29.06892234 19.32828556 29.06892234 19.32828556 30.1875 17.125 C31.17856873 14.91214647 31.17856873 14.91214647 31 12 C29.68 12 28.36 12 27 12 Z M4 13 C3.67 13.99 3.34 14.98 3 16 C2 17 1 18 0 19 C0 19.66 0 20.32 0 21 C1.98 21 3.96 21 6 21 C6 18.36 6 15.72 6 13 C5.34 13 4.68 13 4 13 Z " fill="#FEFEFE" transform="translate(31,1)"/>
</svg>
