<?xml version="1.0" encoding="UTF-8"?>
<svg version="1.1" xmlns="http://www.w3.org/2000/svg" width="193" height="150">
<path d="M0 0 C0.556875 0.2475 1.11375 0.495 1.6875 0.75 C1.11575943 3.97068988 0.28734829 5.49404944 -2.1484375 7.66015625 C-3.00308594 8.43262695 -3.00308594 8.43262695 -3.875 9.22070312 C-4.473125 9.74599609 -5.07125 10.27128906 -5.6875 10.8125 C-6.8623339 11.86548977 -8.03682417 12.91886309 -9.2109375 13.97265625 C-9.99476807 14.66500366 -9.99476807 14.66500366 -10.79443359 15.37133789 C-14.20315146 18.46703262 -15.67534052 20.03501984 -16.3125 24.75 C-17.3025 24.75 -18.2925 24.75 -19.3125 24.75 C-21.46103436 25.28195637 -21.46103436 25.28195637 -23.3125 26.75 C-23.54582031 27.61625 -23.77914062 28.4825 -24.01953125 29.375 C-25.76230456 33.92411221 -28.56737656 36.67991674 -31.9375 40.125 C-32.56978516 40.78330811 -33.20207031 41.44161621 -33.85351562 42.11987305 C-35.10417414 43.41879416 -36.35894149 44.71377402 -37.61816406 46.00439453 C-39.03311998 47.46216612 -40.42223348 48.9449638 -41.8046875 50.43359375 C-45.51689032 54.36968429 -48.02874096 56.20353394 -53.3125 57.75 C-54.73137601 59.50875289 -54.73137601 59.50875289 -54.3125 61.75 C-52.6902546 63.45993434 -51.01836575 65.12347684 -49.3125 66.75 C-49.05855469 67.53246094 -48.80460937 68.31492187 -48.54296875 69.12109375 C-46.86084187 72.71497119 -44.17896299 74.30446197 -40.9375 76.375 C-39.78349043 77.13747061 -38.62983626 77.90047941 -37.4765625 78.6640625 C-36.43242188 79.35242188 -35.38828125 80.04078125 -34.3125 80.75 C-32.96932132 81.73673644 -31.63087973 82.73036641 -30.3125 83.75 C-31.6380581 87.37276315 -33.25596955 90.38505348 -35.4375 93.5625 C-35.97632812 94.35269531 -36.51515625 95.14289063 -37.0703125 95.95703125 C-37.48023437 96.54871094 -37.89015625 97.14039062 -38.3125 97.75 C-42.55857828 97.17870947 -45.36634562 95.70658013 -48.9375 93.375 C-49.87851563 92.76914063 -50.81953125 92.16328125 -51.7890625 91.5390625 C-53.87756715 90.05835797 -55.5929251 88.63114569 -57.3125 86.75 C-62.31163315 88.60682089 -66.29817812 90.22851719 -69.3125 94.75 C-69.55469315 97.72449608 -69.55469315 97.72449608 -69.4375 100.9375 C-69.41945312 102.02417969 -69.40140625 103.11085938 -69.3828125 104.23046875 C-69.35960937 105.06191406 -69.33640625 105.89335938 -69.3125 106.75 C-68.6525 106.75 -67.9925 106.75 -67.3125 106.75 C-66.9825 107.74 -66.6525 108.73 -66.3125 109.75 C-68.07621818 110.78307771 -69.84875033 111.80112049 -71.625 112.8125 C-72.61113281 113.38097656 -73.59726563 113.94945313 -74.61328125 114.53515625 C-77.3125 115.75 -77.3125 115.75 -80.3125 114.75 C-80.36784912 114.15461426 -80.42319824 113.55922852 -80.48022461 112.94580078 C-80.73268865 110.25512785 -80.99126816 107.56507714 -81.25 104.875 C-81.38051758 103.46927734 -81.38051758 103.46927734 -81.51367188 102.03515625 C-81.64418945 100.69130859 -81.64418945 100.69130859 -81.77734375 99.3203125 C-81.855896 98.49289551 -81.93444824 97.66547852 -82.01538086 96.81298828 C-82.21027363 94.6918334 -82.21027363 94.6918334 -83.3125 92.75 C-87.52839643 93.25590757 -89.45344911 94.38816756 -92.375 97.4375 C-93.02597656 98.10136719 -93.67695312 98.76523438 -94.34765625 99.44921875 C-99.02453527 104.92572321 -100.88489619 108.83057458 -101.375 115.875 C-101.8987069 122.92241379 -101.8987069 122.92241379 -103.55859375 126.2421875 C-105.3125 127.75 -105.3125 127.75 -107.65917969 128.06347656 C-112.7163921 127.46599214 -115.69899432 123.11705608 -119.125 119.625 C-120.30739258 118.48417969 -120.30739258 118.48417969 -121.51367188 117.3203125 C-122.25810547 116.57265625 -123.00253906 115.825 -123.76953125 115.0546875 C-124.44991455 114.37390137 -125.13029785 113.69311523 -125.83129883 112.99169922 C-127.78950321 110.02808744 -127.80555662 108.23572123 -127.3125 104.75 C-126.03417969 103.01831055 -126.03417969 103.01831055 -124.234375 101.63671875 C-123.57308594 101.1154541 -122.91179687 100.59418945 -122.23046875 100.05712891 C-121.51503906 99.52265137 -120.79960938 98.98817383 -120.0625 98.4375 C-119.34191406 97.87208496 -118.62132812 97.30666992 -117.87890625 96.72412109 C-114.51196452 94.09984328 -111.09472874 91.57215658 -107.578125 89.15234375 C-105.96164063 88.02505859 -105.96164063 88.02505859 -104.3125 86.875 C-103.343125 86.23820312 -102.37375 85.60140625 -101.375 84.9453125 C-98.94727097 82.80576279 -98.94727097 82.80576279 -98.9375 79.1171875 C-99.10122275 75.88466583 -99.10122275 75.88466583 -100.3125 73.75 C-100.6875 70.4375 -100.6875 70.4375 -100.3125 66.75 C-96.95302906 62.92821654 -93.0525348 59.8608616 -89 56.8125 C-88.42894531 56.3801001 -87.85789063 55.9477002 -87.26953125 55.50219727 C-86.13550797 54.64382246 -85.00060584 53.78660725 -83.86474609 52.93066406 C-82.51757794 51.90598568 -81.18866835 50.8573873 -79.86328125 49.8046875 C-73.45335145 44.75 -73.45335145 44.75 -69.3125 44.75 C-66.96061553 45.34793673 -64.62324405 46.00881795 -62.3125 46.75 C-61.6525 46.75 -60.9925 46.75 -60.3125 46.75 C-60.27898437 45.86957031 -60.24546875 44.98914062 -60.2109375 44.08203125 C-59.01833349 39.65902593 -56.50579276 37.98534693 -52.9375 35.4375 C-52.31133789 34.9616748 -51.68517578 34.48584961 -51.04003906 33.99560547 C-48.08098401 31.74813628 -45.08169034 29.58321361 -42.0078125 27.49609375 C-36.29849826 23.41648952 -36.29849826 23.41648952 -33.19140625 17.30078125 C-32.68787756 14.08861549 -32.37776955 10.99841537 -32.3125 7.75 C-28.95999299 8.32575664 -27.37431371 9.34306263 -25.0625 11.8125 C-24.28132813 12.63427734 -24.28132813 12.63427734 -23.484375 13.47265625 C-23.09765625 13.89417969 -22.7109375 14.31570312 -22.3125 14.75 C-18.11653053 13.35633871 -15.51951426 11.39159779 -12.3125 8.375 C-3.00195961 -0.32453617 -3.00195961 -0.32453617 0 0 Z " fill="#F1F1F2" transform="translate(159.3125,11.25)"/>
</svg>
