<svg enable-background="new 0 0 512 512" viewBox="0 0 512 512" xmlns="http://www.w3.org/2000/svg"><path d="m80.177 135.052h-38.14c-8.351 0-15.12-6.769-15.12-15.12v-34.272c0-8.351 6.769-15.12 15.12-15.12h38.14c8.351 0 15.12 6.769 15.12 15.12v34.272c0 8.35-6.77 15.12-15.12 15.12z" fill="#778a91"/><path d="m402.595 74.975c14.313 54.484 37.153-7.326 69.721-18.956 41.002-14.642 48.822 32.548 11.527 32.548-33.904 0-15.596 146.391-131.827 146.391-68.887 0 50.579-159.983 50.579-159.983z" fill="#576f7a"/><path d="m346.775 192.948s-.053.321-.153.923c-.05.301-.111.672-.184 1.108-.096.636-.206 1.367-.329 2.185-.066.405-.137.832-.21 1.28-.08.384-.163.786-.25 1.205-.173.839-.362 1.744-.595 2.662-.445 1.87-.99 3.907-1.646 6.056-.64 2.165-1.404 4.424-2.244 6.779-.843 2.352-1.785 4.779-2.806 7.25-2.056 4.936-4.417 10.048-7.04 15.029-2.618 4.984-5.446 9.85-8.413 14.309-1.459 2.231-2.998 4.358-4.488 6.352-1.543 1.993-3.026 3.85-4.565 5.537-1.49 1.687-3.031 3.205-4.454 4.519-.728.658-1.465 1.264-2.117 1.816-.721.542-1.383 1.04-1.981 1.49-1.311.879-2.339 1.532-3.183 1.95-.799.413-1.225.633-1.225.633-3.812 1.968-8.499.473-10.467-3.339-1.478-2.863-1.003-6.218.939-8.545l1.521-1.815s.112-.134.322-.385c.199-.197.543-.668.977-1.215.223-.322.471-.677.74-1.065.269-.435.56-.906.87-1.41.611-1.076 1.297-2.319 1.983-3.826.703-1.462 1.393-3.188 2.098-5.007.679-1.866 1.375-3.84 2.007-5.964 1.295-4.212 2.427-8.873 3.353-13.563.933-4.689 1.616-9.432 2.08-13.82.226-2.195.395-4.304.5-6.277.102-1.97.167-3.816.153-5.464.006-1.658-.048-3.13-.133-4.379-.028-.639-.088-1.197-.141-1.712-.025-.257-.049-.504-.072-.74-.028-.212-.07-.337-.099-.496-.064-.312-.113-.529-.158-.819-.054-.439-.1-.812-.137-1.115-.075-.605-.114-.928-.114-.928l-.003-.028c-1.352-10.986 6.457-20.988 17.443-22.34s20.988 6.457 22.34 17.443c.237 1.921.173 3.906-.119 5.726z" fill="#778a91"/><path d="m441.988 158.063c-.916-8.876-3.54-17.251-7.516-24.832-12.106-30.799-31.877-58.255-31.877-58.255 0-10.469 3.183-18.956-14.859-18.956h-182.724c-13.991 0-25.333 14.47-25.333 32.319v3.281h-165.509c-6.581 0-11.915 4.895-11.915 10.934v57.691c0 24.285 21.454 43.972 47.92 43.972h153.758v30.961c0 51.258 41.701 92.958 92.959 92.958s92.958-41.7 92.958-92.958c0-.823-.012-1.643-.033-2.461 26.298-7.034 46.538-28.462 51.4-55.122 1.554-.94 2.449-2.157 2.449-3.717-.001-5.092-.612-10.407-1.678-15.815zm-145.097 139.557c-34.433 0-62.445-28.013-62.445-62.444v-30.366c29.266 2.302 9.614 29.355 124.889 30.338 0 .01.001.019.001.029-.001 34.43-28.014 62.443-62.445 62.443z" fill="#9cadb5"/><path d="m336.623 84.543h-92.963c-14.306 0-25.904 11.598-25.904 25.904v56.401c0 14.306 11.597 25.904 25.904 25.904h89.478c1.153.071 2.313.118 3.484.118 30.494 0 55.214-24.25 55.214-54.164s-24.719-54.163-55.213-54.163z" fill="#576f7a"/><path d="m311.917 127.034h-67.658c-7.022 0-12.714-5.692-12.714-12.714s5.692-12.714 12.714-12.714h67.658c7.021 0 12.714 5.692 12.714 12.714s-5.693 12.714-12.714 12.714z" fill="#c3d6dd"/><path d="m160.152 126.017h-137.51c-4.775 0-8.646-3.871-8.646-8.646s3.871-8.646 8.646-8.646h137.51c4.775 0 8.646 3.871 8.646 8.646s-3.871 8.646-8.646 8.646z" fill="#d7dfe2"/><path d="m311.917 174.314h-67.658c-7.022 0-12.714-5.692-12.714-12.714s5.692-12.714 12.714-12.714h67.658c7.021 0 12.714 5.692 12.714 12.714s-5.693 12.714-12.714 12.714z" fill="#c3d6dd"/><path d="m443.665 173.876s-39.413-3.109-39.413 28.289c0 15.87-7.707 25.891-14.289 31.555-6.009 5.171-9.545 12.647-9.97 20.563l-1.347 25.084c-13.778 25.389-39.032 43.677-68.759 47.855 41.232-.76 64.146-3.037 64.146 38.062l-3.018 56.214c0 25.019 20.282 45.301 45.301 45.301h51.323c25.019 0 45.301-20.282 45.301-45.301v-101.362c.001-60.978-37.573-146.26-69.275-146.26z" fill="#2b3b47"/></svg>