<svg viewBox="0 0 64 64" xmlns="http://www.w3.org/2000/svg"><g fill="#ff9d27"><path d="m10.9 48.7c4-4 4.4-5 6.9-2.5s1.5 2.8-2.5 6.9c-3 3-6.8 2.4-6.8 2.4s-.6-3.8 2.4-6.8"/><path d="m18.5 52.8c1.6-4.2 2.1-4.7-.2-6s-2.3-.4-3.8 3.8c-1.2 3.1.2 5.9.2 5.9s2.7-.5 3.8-3.7"/></g><path d="m16.2 48.9c.9-2.3.9-2.8 2.1-2.1 1.3.7 1 1 .1 3.3-.6 1.7-2.1 2.1-2.1 2.1s-.7-1.5-.1-3.3" fill="#fdf516"/><path d="m17.1 45.7c-1.3-2.3-1.8-1.8-6-.2-3.1 1.2-3.7 3.8-3.7 3.8s2.8 1.4 5.9.2c4.2-1.6 5.1-1.6 3.8-3.8" fill="#ff9d27"/><g fill="#fdf516"><path d="m15 47.8c2.3-.9 2.8-.9 2.1-2.1-.7-1.3-1-1-3.3-.1-1.7.6-2.1 2.1-2.1 2.1s1.6.7 3.3.1"/><path d="m13.9 47.6c2.2-2.2 2.4-2.8 3.8-1.4s.8 1.6-1.4 3.8c-1.7 1.7-3.8 1.3-3.8 1.3s-.2-2 1.4-3.7"/></g><path d="m18.5 38c-6.2-10.4-16.5-6.1-16.5-6.1s14.7-14.7 24.6-4.8z" fill="#3baacf"/><path d="m23.3 30.3 3.2-3.2c-9.8-9.9-24.5 4.8-24.5 4.8s12.9-9.2 21.3-1.6" fill="#428bc1"/><path d="m26 45.5c10.4 6.2 6.1 16.5 6.1 16.5s14.7-14.7 4.8-24.6z" fill="#3baacf"/><path d="m33.7 40.7 3.2-3.2c9.9 9.9-4.8 24.6-4.8 24.6s9.2-13 1.6-21.4" fill="#428bc1"/><path d="m48.8 30.9c-11.7 11.6-24.6 17.9-29.1 13.4s1.8-17.4 13.4-29.1c13.6-13.6 28.7-13 28.7-13s.5 15.1-13 28.7" fill="#c5d0d8"/><path d="m45.8 27.6c-11.6 11.6-23.2 19.2-25.9 16.5s4.9-14.3 16.5-25.9c13.6-13.6 25.6-16.2 25.6-16.2s-2.6 12-16.2 25.6z" fill="#dae3ea"/><path d="m24.3 47.5c-.5.5-1.3.5-1.8 0l-6-6c-.5-.5-.5-1.4 0-1.9l1.8-1.8 7.8 7.8z" fill="#c94747"/><path d="m22.6 45.7c-.5.5-1.1.7-1.4.4l-3.4-3.4c-.3-.3-.1-.9.4-1.4l1.8-1.8 4.4 4.4z" fill="#f15744"/><path d="m20.9 48.2c-.3.3-1 .3-1.3 0l-3.9-3.9c-.3-.3-.2-.9.1-1.2l1.2-1.2 5.1 5.1z" fill="#3e4347"/><path d="m20.1 47.4c-.3.3-.9.4-1.1.2l-2.7-2.7c-.2-.2-.1-.7.3-1l1.2-1.2 3.5 3.5z" fill="#62727a"/><path d="m61.8 2.2s-5.4-.2-12.7 2.6l10.1 10.1c2.8-7.3 2.6-12.7 2.6-12.7" fill="#c94747"/><path d="m61.8 2.2s-4.3.9-10.8 4.6l6.2 6.2c3.7-6.5 4.6-10.8 4.6-10.8" fill="#f15744"/><circle cx="43.5" cy="20.5" fill="#edf4f9" r="5"/><circle cx="43.5" cy="20.5" fill="#3baacf" r="3.3"/><circle cx="33.5" cy="30.5" fill="#edf4f9" r="5"/><circle cx="33.5" cy="30.5" fill="#3baacf" r="3.3"/><g fill="#fff"><path d="m48.9 6.9c-.3.3-.9.3-1.2 0s-.3-.9 0-1.2.9-.3 1.2 0 .3.9 0 1.2"/><circle cx="50.6" cy="8.6" r=".8"/><circle cx="53" cy="11" r=".8"/><circle cx="55.3" cy="13.4" r=".8"/><circle cx="57.7" cy="15.7" r=".8"/></g></svg>