<svg height="32" viewBox="0 0 99 32" width="99" xmlns="http://www.w3.org/2000/svg"><path d="m94.272 4.384h.608v2.816h-.512v2.848h-.416v3.552h-.416v1.152h-3.648l-.32.352h-3.904l-.16.832-.192.416-.352.16h-.64l-.64-.128h-20.384l-.736-.128-.128-.384.288-.416.416-.64h-21.888l-.192.48-.064.512.064.48.064.416.224.416-.256.256-.512-.48-.384-.768-.224-.8-.032-.608h-.928l-.192.576-.192.672-.096.672.032.512.448.384.512.256.16.256-.032.352-.224.352-.48.16-.736.128-.352.192-.288.288-.32.608-.096.48v.576l-.192.512-.256.448-.416.544-1.472 3.648.48.512v.448l-.576.608h-4.8l-.832-.224-.032-.736.128-.288-.224-.864.256-1.952.704-2.208.896-1.888 1.056-1.568.672-.672.416-.48.224-.672-.064-.512-.384-.672-.64-.48-.64-.256-.896-.16h-4.64l-.32-.16-.928-.864v-.352h-.256l-.32.16-.608.256-16.512 3.68-.352.256-1.888.448-.384-.096-.128-.384-.096-1.152.288-2.976.096-2.976-.128-3.168-.064-1.664.096-.608.256-.352.384-.16 1.376-.064h.8l.384.416.384-.416h12.032l.832.096.928.288 1.024.416.736.48.544.288.32.352.224-.256h2.688l.192-.096.256-.16 2.208-1.888.928-.256h.704l.544-.576h11.136l.32.32.736.768h10.592l.416-.416h20.736l.512.544h5.024l.576-.608h9.92v-.608h.96v1.024h.64z"/></svg>