<?xml version="1.0" encoding="UTF-8"?>
<svg version="1.1" xmlns="http://www.w3.org/2000/svg" width="99" height="32">
<path d="M0 0 C1.4478463 0.03509926 1.4478463 0.03509926 2.92494202 0.07090759 C4.48274635 0.1239077 4.48274635 0.1239077 6.07202148 0.17797852 C7.68910255 0.21907494 7.68910255 0.21907494 9.33885193 0.26100159 C12.79062302 0.34975469 16.24179203 0.4522409 19.69311523 0.55688477 C23.11944653 0.65658707 26.54576866 0.7531141 29.97239685 0.84205627 C32.10300139 0.89774821 34.23345632 0.95964781 36.36366272 1.02891541 C42.32464985 1.18922614 48.03053004 0.93165072 53.94639587 0.14955139 C54.66718826 0.13959641 55.38798065 0.12964142 56.13061523 0.11938477 C57.12061523 1.10938477 57.12061523 1.10938477 58.13061523 2.11938477 C58.10717773 4.72094727 58.10717773 4.72094727 57.75561523 7.74438477 C57.64475586 8.74727539 57.53389648 9.75016602 57.41967773 10.78344727 C57.32428711 11.55430664 57.22889648 12.32516602 57.13061523 13.11938477 C50.21678009 15.25059123 43.83179947 15.3563649 36.63061523 15.24438477 C35.52202148 15.23536133 34.41342773 15.22633789 33.27124023 15.21704102 C30.55746931 15.19364644 27.84415979 15.16086651 25.13061523 15.11938477 C25.13061523 14.45938477 25.13061523 13.79938477 25.13061523 13.11938477 C21.83792704 13.20003112 18.54712303 13.31288755 15.25561523 13.43188477 C13.84989258 13.46572266 13.84989258 13.46572266 12.41577148 13.50024414 C11.51987305 13.53569336 10.62397461 13.57114258 9.70092773 13.60766602 C8.87351074 13.6338501 8.04609375 13.66003418 7.19360352 13.68701172 C4.73733592 13.95035113 4.73733592 13.95035113 3.13061523 17.11938477 C2.47061523 17.11938477 1.81061523 17.11938477 1.13061523 17.11938477 C0.47061523 20.08938477 -0.18938477 23.05938477 -0.86938477 26.11938477 C-3.17938477 26.11938477 -5.48938477 26.11938477 -7.86938477 26.11938477 C-8.2177162 21.24274467 -7.28624188 18.34888472 -4.86938477 14.11938477 C-12.85505884 12.9251308 -19.35285734 13.31915978 -27.15454102 15.42797852 C-29.86938477 16.11938477 -29.86938477 16.11938477 -32.86938477 16.11938477 C-32.86938477 11.49938477 -32.86938477 6.87938477 -32.86938477 2.11938477 C-30.34024414 2.15418945 -30.34024414 2.15418945 -27.76000977 2.18969727 C-25.54647252 2.20845606 -23.3329305 2.22665614 -21.11938477 2.24438477 C-20.00821289 2.26114258 -18.89704102 2.27790039 -17.75219727 2.29516602 C-16.68227539 2.30161133 -15.61235352 2.30805664 -14.51000977 2.31469727 C-13.52548828 2.3251709 -12.5409668 2.33564453 -11.52661133 2.34643555 C-8.90889778 2.30077531 -8.90889778 2.30077531 -7.00764465 1.11265564 C-4.46633359 -0.06784177 -2.79109632 -0.08319459 0 0 Z M2.13061523 13.11938477 C3.13061523 15.11938477 3.13061523 15.11938477 3.13061523 15.11938477 Z " fill="#C0C0C0" transform="translate(36.869384765625,1.880615234375)"/>
</svg>
