<?xml version="1.0" encoding="UTF-8"?>
<svg version="1.1" xmlns="http://www.w3.org/2000/svg" width="123" height="32">
<path d="M0 0 C8.58 0 17.16 0 26 0 C26.66 1.98 27.32 3.96 28 6 C29.49853516 6.09087891 29.49853516 6.09087891 31.02734375 6.18359375 C32.96287109 6.30927734 32.96287109 6.30927734 34.9375 6.4375 C36.86916016 6.55931641 36.86916016 6.55931641 38.83984375 6.68359375 C42 7 42 7 43 8 C44.41130605 8.08773274 45.82696699 8.10694871 47.2409668 8.09765625 C48.14247971 8.09435303 49.04399261 8.0910498 49.9728241 8.08764648 C50.95503433 8.07934814 51.93724457 8.0710498 52.94921875 8.0625 C53.95459183 8.05871338 54.9599649 8.05492676 55.99580383 8.05102539 C60.31357723 8.03463114 64.63125753 8.00664154 68.94897461 7.97949219 C72.09488485 7.96136976 75.24077942 7.94929271 78.38671875 7.9375 C79.35880783 7.92920166 80.33089691 7.92090332 81.33244324 7.91235352 C86.00964517 7.8955103 90.3993591 8.02324707 95 9 C95 10.32 95 11.64 95 13 C89.71404078 14.08828572 84.61938935 14.15252777 79.25 14.125 C78.33710205 14.12306641 77.4242041 14.12113281 76.48364258 14.11914062 C67.63542034 14.06405442 58.82577742 13.60347196 50 13 C50 13.99 50 14.98 50 16 C46.06711636 16.93087909 42.42345837 17.11608885 38.38671875 17.09765625 C37.13955078 17.09443359 35.89238281 17.09121094 34.60742188 17.08789062 C33.31384766 17.07951172 32.02027344 17.07113281 30.6875 17.0625 C28.71813477 17.05573242 28.71813477 17.05573242 26.70898438 17.04882812 C23.4726099 17.03705949 20.23632822 17.0206176 17 17 C17.020625 17.969375 17.04125 18.93875 17.0625 19.9375 C17 23 17 23 16 24 C13.32941149 24.14115161 10.67567762 24.04247107 8 24 C7.34 22.02 6.68 20.04 6 18 C5.01 18.33 4.02 18.66 3 19 C1.77479736 22.00847418 1.77479736 22.00847418 1 25 C0.16597656 24.86722656 -0.66804688 24.73445313 -1.52734375 24.59765625 C-8.00968874 23.58038103 -14.47193958 22.66387055 -21 22 C-21 17.05 -21 12.1 -21 7 C-14.07 7 -7.14 7 0 7 C0 6.34 0 5.68 0 5 C-0.66 5 -1.32 5 -2 5 C-1.34 3.35 -0.68 1.7 0 0 Z M-9 15 C-7.35 16.65 -5.7 18.3 -4 20 C-1.92140082 17.73675716 -1.92140082 17.73675716 -1 15 C-3.64 15 -6.28 15 -9 15 Z " fill="#C0C0C0" transform="translate(25,2)"/>
</svg>
