<svg height="32" viewBox="0 0 123 32" width="123" xmlns="http://www.w3.org/2000/svg"><path d="m113.312 11.392h5.92v3.328h-5.888v.992h-18.208v-.576h-1.664v-.928h-17.12v.512h-5.248v-.352l-1.344.512v1.216h1.344v-.448h3.84v2.048h-3.744v-.384h-1.376l-.064.992-.224.288-.384.128h-23.328l-.288-.32h-4.32v6.56l-.352.384h-6.528l-.256-.256h-.928l-.16-.192v-4.32l-1.472-1.024-.192-.288v-2.912h-1.216l-.16.448-.096.64.064.8.192.64.096.224-.256.16-.352-.48-.416-.96-.16-.992-.032-.48h-.256l-.352.448-.224.544-.096.576v.544l.16.48.416.352.256.128-.16.576-.672.064-.48.224-.288.416-.224.48-.096.48v.288l-.096.48-.448.384-.256.544-.288.928-.448 1.248.16.512-.448.384-17.984-3.68-.128.288-.32.256-1.984.704-.32-.064-.16-.256-.128-.448.064-.8.192-3.104.128-3.232-.064-3.68-.16-1.76.096-.896.128-.288.608-.096h.832l.256.256h.864l.224.32.096.352v.544h15.104l.896-.992h2.208v-.96l.256-.256h.768l.16-.16h2.784l.48-.352h3.52v-1.024h-7.968v-.544h-2.592l-.096-.064 2.816-3.616h2.112l.8-.48h21.376l.448.704v2.144l2.624 1.248v.704h-2.464l-1.536 1.664h1.92l1.728.96h14.848v1.472h2.112v.576h1.248v-.544h5.408v.544h17.088v-.8h1.856v-.576h18.016v.896zm-88.672 5.536v-.608h-9.984l4.736 4.832.864.64.576.288h.544l.448-.128.288-.288v-.608zm21.984-8.096v-1.632h-6.976v1.024l.064.032h1.632l1.184.576z"/></svg>