<svg viewBox="0 0 512 512" xmlns="http://www.w3.org/2000/svg"><path d="m0 0h512v512h-512z"/><path d="m254.785 20.36c-16.934 0-32.385 4.04-44.254 11.214-11.867 7.176-20.745 18.27-20.745 31.643 0 13.372 8.878 24.467 20.746 31.642 11.87 7.175 27.32 11.214 44.255 11.214 11.424 0 22.168-1.845 31.598-5.244l-18.87 18.87 123.037 123.041 21.214-21.215-122-122c3.282-1.36 6.387-2.917 9.275-4.664 6.595-3.988 12.26-9.19 15.997-15.317l18.943 18.945-9.898 9.9 107.79 107.79 16.263-48.79-91.526-91.53-9.9 9.902-27.31-27.31c-1.817-11.24-9.933-20.57-20.36-26.876-11.87-7.175-27.32-11.215-44.255-11.215zm104.335 12.76-9.897 9.9 119.507 119.505-24.953 74.856-142.76 164.725 9.926 9.928 162.157-183.778 20.29-60.87zm-104.335 5.24c13.994 0 26.542 3.54 34.942 8.62 8.4 5.077 12.058 10.91 12.058 16.237s-3.66 11.16-12.058 16.238c-8.4 5.078-20.948 8.62-34.942 8.62-13.993 0-26.542-3.542-34.94-8.62-8.4-5.078-12.06-10.91-12.06-16.238 0-5.327 3.66-11.16 12.06-16.238 8.398-5.08 20.947-8.62 34.94-8.62zm0 94.068-202.235 202.232 123.04 123.04 202.232-202.233-123.037-123.04zm-214.963 214.96-21.21 21.216 123.033 123.036 21.215-21.214-123.037-123.036z" fill="#fff"/></svg>