<svg fill="none" height="48" viewBox="0 0 48 48" width="48" xmlns="http://www.w3.org/2000/svg"><path clip-rule="evenodd" d="m48 0h-48v48h48zm-40.86413 22.0052c-.15053 1.0943.76677 1.9946 1.87139 1.9945 5.68564-.0003 8.71734-.0001 11.96684.0001h.0168c2.8502.0001 5.8718.0003 11.001.0001 1.1046 0 2.0225-.9002 1.872-1.9945-.1435-1.0433-.3979-2.0495-.7504-3.0054h9.8864c.5523 0 1-.4477 1-1s-.4477-1-1-1h-10.806c-2.3342-4.1846-6.6971-7-11.694-7-6.8028 0-12.43044 5.2181-13.36403 12.0052zm.05128 3.9948c-2.17375 0-3.70868 2.0061-3.02128 3.9487l1.39727 3.9487c.86697 2.45 3.30097 4.1026 6.04256 4.1026h24.7886c2.7416 0 5.1756-1.6526 6.0426-4.1026l1.3972-3.9487c.6874-1.9426-.8475-3.9487-3.0213-3.9487zm6.31285 8.5c1.3807 0 2.5-1.1193 2.5-2.5s-1.1193-2.5-2.5-2.5-2.5 1.1193-2.5 2.5 1.1193 2.5 2.5 2.5zm13-2.5c0 1.3807-1.1193 2.5-2.5 2.5s-2.5-1.1193-2.5-2.5 1.1193-2.5 2.5-2.5 2.5 1.1193 2.5 2.5zm8 2.5c1.3807 0 2.5-1.1193 2.5-2.5s-1.1193-2.5-2.5-2.5-2.5 1.1193-2.5 2.5 1.1193 2.5 2.5 2.5z" fill="#333" fill-rule="evenodd"/></svg>